<?xml version="1.0" encoding="UTF-8"?>
<svg width="761px" height="769px" viewBox="0 0 761 769" version="1.1" xmlns="http://www.w3.org/2000/svg" xmlns:xlink="http://www.w3.org/1999/xlink">
    <!-- Generator: Sketch 41.2 (35397) - http://www.bohemiancoding.com/sketch -->
    <title>Page 1</title>
    <desc>Created with Sketch.</desc>
    <defs></defs>
    <g id="Page-1" stroke="none" stroke-width="1" fill="none" fill-rule="evenodd">
        <g stroke-width="0.25">
            <path d="M393.310213,485.526043 C315.346025,563.492958 197.011889,571.575959 129.015805,503.573132 C61.0153566,435.57467 69.0980747,317.236395 147.062263,239.269481 C225.030815,161.302566 343.360586,153.219565 411.361035,221.222392 C479.357119,289.220854 471.274401,407.559128 393.310213,485.526043 Z" id="Stroke-1" stroke="#0000FF"></path>
            <path d="M631.152485,478.991993 C531.964616,578.183332 367.010829,574.037084 262.707978,469.73495 C158.409491,365.428451 154.263388,200.468895 253.451258,101.273191 C352.643492,2.0818528 517.597279,6.22810051 621.90013,110.530235 C726.198616,214.836734 730.344719,379.79629 631.152485,478.991993 Z" id="Stroke-3" stroke="#00FFFF"></path>
            <path d="M520.293118,528.753076 C420.860847,628.188825 290.791059,659.329328 229.77352,598.309655 C168.751617,537.285618 199.89103,407.21128 299.323302,307.775531 C398.751209,208.344147 528.820997,177.203644 589.8429,238.227681 C650.860439,299.247354 619.721025,429.321692 520.293118,528.753076 Z" id="Stroke-5" stroke="#0000FF"></path>
            <path d="M483.609711,526.157525 C395.258445,614.511882 267.209336,629.7177 197.611547,560.113112 C128.009393,490.508524 143.210315,362.459301 231.565946,274.10058 C319.917212,185.746224 447.966321,170.54477 517.56411,240.144994 C587.170628,309.749581 571.965342,437.798804 483.609711,526.157525 Z" id="Stroke-7" stroke="#00FFFF"></path>
            <path d="M326.387751,508.806133 C250.025268,585.171287 137.884101,596.837519 75.9064118,534.862027 C13.9374515,472.886535 25.5989109,360.737081 101.961394,284.371927 C178.323877,208.011137 290.469409,196.344906 352.442733,258.320398 C414.411693,320.29589 402.750234,432.440979 326.387751,508.806133 Z" id="Stroke-9" stroke="#FF00FF"></path>
            <path d="M709.970334,523.63006 C621.832919,611.770557 444.200787,577.03373 313.210127,446.042854 C182.223832,315.051978 147.48822,137.409268 235.625635,49.264406 C323.767414,-38.8760914 501.403911,-4.13926456 632.390206,126.855976 C763.372137,257.846853 798.107749,435.489562 709.970334,523.63006 Z" id="Stroke-11" stroke="#FF00FF"></path>
            <path d="M622.257567,409.326739 C540.819382,490.767773 421.616747,503.612412 356.021038,438.00568 C290.420965,372.407677 303.26079,253.205237 384.698976,171.759839 C466.137161,90.318805 585.335432,77.482895 650.935505,143.080898 C716.535579,208.683266 703.691389,327.885705 622.257567,409.326739 Z" id="Stroke-13" stroke="#FF00FF"></path>
            <path d="M598.709886,382.074544 C517.271701,463.515578 398.07343,476.355853 332.473357,410.753485 C266.877648,345.151117 279.713109,225.953042 361.151295,144.507644 C442.593845,63.0666099 561.792115,50.2263354 627.387824,115.828703 C692.992262,181.426706 680.148072,300.63351 598.709886,382.074544 Z" id="Stroke-15" stroke="#FF00FF"></path>
            <path d="M579.454076,334.291003 C520.871827,392.875301 414.347538,381.331275 341.528882,308.514436 C268.710225,235.688868 257.166602,129.165218 315.748851,70.5809201 C374.3311,11.9966222 480.851025,23.5406487 553.674046,96.3574874 C626.492702,169.183055 638.036325,275.706706 579.454076,334.291003 Z" id="Stroke-17" stroke="#FCEE21"></path>
            <path d="M429.290092,445.180434 C296.955223,577.519932 123.691773,618.807831 42.2885018,537.406077 C-39.1147693,455.999959 2.17604927,282.726085 134.506554,150.390951 C266.841424,18.0558177 440.109238,-23.2364451 521.508145,58.1653087 C602.907052,139.575791 561.620597,312.845301 429.290092,445.180434 Z" id="Stroke-19" stroke="#FCEE21"></path>
            <path d="M694.431178,551.010134 C606.093004,639.351397 463.030639,639.512882 374.897589,551.376749 C286.764539,463.240617 286.926018,320.173248 375.264192,231.831985 C463.602365,143.490722 606.66473,143.324872 694.79778,231.46537 C782.935195,319.601502 782.769351,462.668871 694.431178,551.010134 Z" id="Stroke-21" stroke="#FCEE21"></path>
            <path d="M585.727784,395.057101 C504.289598,476.498135 385.091328,489.342773 319.491255,423.736041 C253.891181,358.133674 266.731007,238.935599 348.169192,157.4902 C429.611742,76.0491662 548.805648,63.2132561 614.405722,128.811259 C680.010159,194.413627 667.16597,313.616067 585.727784,395.057101 Z" id="Stroke-23" stroke="#FCEE21"></path>
            <path d="M674.071195,660.966004 C574.713117,760.327558 410.383427,757.076026 307.018905,653.712253 C203.663111,550.34848 200.416058,386.008679 299.765407,286.65149 C399.123485,187.294302 563.457539,190.541468 666.817697,293.900877 C770.177855,397.269015 773.429273,561.604451 674.071195,660.966004 Z" id="Stroke-25" stroke="#FCEE21"></path>
            <path d="M631.408234,602.194907 C534.834592,698.771928 350.363572,670.869863 219.377277,539.878986 C88.3909817,408.88811 60.494257,224.406274 157.063535,127.833618 C253.632814,31.2609619 438.108198,59.1586623 569.094493,190.149539 C700.080788,321.140415 727.981877,505.617887 631.408234,602.194907 Z" id="Stroke-27" stroke="#FCEE21"></path>
            <path d="M446.807158,497.494296 C326.504715,617.800947 179.88543,666.233485 119.321781,605.667717 C58.7624953,545.106314 107.193339,398.477537 227.491418,278.17525 C347.793861,157.8686 494.413145,109.436062 554.976795,170.00183 C615.53608,230.567598 567.105236,377.19201 446.807158,497.494296 Z" id="Stroke-29" stroke="#FCEE21"></path>
            <path d="M559.34155,363.133175 C502.225712,420.251011 395.915275,406.542207 321.892066,332.516409 C247.864494,258.486248 234.156169,152.172092 291.276371,95.0542563 C348.392209,37.9320563 454.702647,51.6408606 528.725855,125.671022 C602.753427,199.69682 616.461752,306.010975 559.34155,363.133175 Z" id="Stroke-31" stroke="#0000FF"></path>
            <path d="M526.545441,596.696546 C394.214936,729.03168 229.165134,778.542242 157.900175,707.279155 C86.6395806,636.011704 136.148411,470.956129 268.478916,338.620995 C400.813786,206.285862 565.863588,156.7753 637.124182,228.038387 C708.384777,299.305838 658.875946,464.361413 526.545441,596.696546 Z" id="Stroke-33" stroke="#0000FF"></path>
            <path d="M569.033392,411.752076 C487.595207,493.19311 368.396936,506.033385 302.796863,440.431017 C237.201154,374.828649 250.036615,255.630574 331.474801,174.185176 C412.917351,92.7441417 532.115621,79.9038672 597.71133,145.506235 C663.315768,211.108603 650.471578,330.311042 569.033392,411.752076 Z" id="Stroke-35" stroke="#00FFFF"></path>
            <path d="M648.507635,686.530459 C550.013692,785.027846 384.915882,779.615902 279.744532,674.440873 C174.577546,569.274573 169.165791,404.166625 267.655369,305.669237 C366.153677,207.17185 531.251486,212.583794 636.418472,317.758823 C741.585458,422.929487 746.997213,588.037435 648.507635,686.530459 Z" id="Stroke-37" stroke="#FF00FF"></path>
            <path d="M567.03017,534.387609 C486.381926,615.038673 329.619965,589.02206 216.885251,476.283403 C104.146172,363.540381 78.1348329,206.772937 158.774348,126.121872 C239.422592,45.475172 396.184553,71.4874208 508.923632,184.230443 C621.662711,296.973465 647.67405,453.740908 567.03017,534.387609 Z" id="Stroke-39" stroke="#FF00FF"></path>
            <path d="M594.307162,528.93202 C522.701786,600.5399 406.881498,600.819226 335.620903,529.556139 C264.355945,458.288687 264.635261,342.464349 336.240637,270.856469 C407.846012,199.248588 523.661936,198.969262 594.931259,270.236714 C666.191854,341.504165 665.912537,457.324139 594.307162,528.93202 Z" id="Stroke-41" stroke="#FF00FF"></path>
            <path d="M543.069188,437.721553 C461.631002,519.162587 342.428368,532.002861 276.832659,466.400494 C211.232585,400.798126 224.072411,281.600051 305.510596,200.154653 C386.948782,118.713619 506.147052,105.873344 571.742761,171.475712 C637.347199,237.073715 624.503009,356.280519 543.069188,437.721553 Z" id="Stroke-43" stroke="#FF00FF"></path>
            <path d="M540.789268,626.096934 C440.890015,725.999682 272.545152,719.618825 164.777032,611.842571 C57.0045478,504.070682 50.6195496,335.715567 150.518803,235.812819 C250.418057,135.910072 418.767283,142.290929 526.535403,250.067183 C634.307888,357.839072 640.688521,526.194187 540.789268,626.096934 Z" id="Stroke-45" stroke="#FCEE21"></path>
            <path d="M664.034135,569.567866 C612.1162,621.487616 463.838475,557.395355 332.847815,426.400115 C201.865885,295.413603 137.767137,147.130691 189.685071,95.2065764 C241.611734,43.2868261 389.885096,107.387816 520.871391,238.374328 C651.857686,369.365204 715.952069,517.648115 664.034135,569.567866 Z" id="Stroke-47" stroke="#FCEE21"></path>
            <path d="M620.855748,694.419677 C522.536378,792.742486 363.566072,793.183297 265.792242,695.406047 C168.014047,597.624433 168.454843,438.648567 266.774213,340.325758 C365.093584,242.007313 524.059525,241.562137 621.83772,339.348116 C719.615915,437.125366 719.170754,596.101232 620.855748,694.419677 Z" id="Stroke-49" stroke="#FCEE21"></path>
            <path d="M566.715066,613.263643 C474.191511,705.790434 323.714169,705.323435 230.61016,612.21617 C137.510515,519.113268 137.043533,368.626299 229.567088,276.099508 C322.090643,183.577081 472.567985,184.039715 565.671994,277.146981 C658.771639,370.249882 659.238621,520.736852 566.715066,613.263643 Z" id="Stroke-51" stroke="#FCEE21"></path>
        </g>
    </g>
</svg>