<?xml version="1.0" encoding="UTF-8"?>
<svg width="24px" height="24px" viewBox="0 0 24 24" version="1.1" xmlns="http://www.w3.org/2000/svg" xmlns:xlink="http://www.w3.org/1999/xlink">
    <!-- Generator: Sketch 43.2 (39069) - http://www.bohemiancoding.com/sketch -->
    <title>Page 1</title>
    <desc>Created with Sketch.</desc>
    <defs>
        <polygon id="path-1" points="23.7686747 0.000231325301 23.7686747 23.9988434 0 23.9988434 0 0.000231325301 23.7686747 0.000231325301"></polygon>
    </defs>
    <g id="Page-1" stroke="none" stroke-width="1" fill="none" fill-rule="evenodd">
        <g id="iPhone-7-Copy-61" transform="translate(-334.000000, -24.000000)">
            <g id="Page-1" transform="translate(334.000000, 24.000000)">
                <mask id="mask-2" fill="white">
                    <use xlink:href="#path-1"></use>
                </mask>
                <g id="Clip-2"></g>
                <path d="M23.3050699,21.2237494 L14.0520578,12.0002313 L23.3050699,2.74721928 C23.825841,2.16890602 23.825841,1.27194217 23.2755759,0.752327711 C22.9864193,0.463171084 22.6105157,0.318592771 22.2059855,0.318592771 C21.8297928,0.318592771 21.483094,0.49266506 21.2237205,0.752327711 L11.9987566,9.97613494 L2.48608193,0.433966265 C2.1969253,0.144809639 1.82073253,0.000231325301 1.41649157,0.000231325301 C1.0402988,0.000231325301 0.6936,0.174014458 0.433648193,0.433966265 C0.173985542,0.723122892 -8.6746988e-05,1.09902651 0.0294072289,1.47521928 C0.0294072289,1.85141205 0.203190361,2.19811084 0.463142169,2.45806265 L9.97581687,12.0002313 L0.433648193,21.5424 C0.144491566,21.8315566 -8.6746988e-05,22.2074602 -8.6746988e-05,22.6119904 C-8.6746988e-05,22.9881831 0.173985542,23.3348819 0.433648193,23.5945446 C0.636057831,23.7686169 0.954419277,23.9990747 1.44569639,23.9990747 C1.96646747,23.9990747 2.28396145,23.7674602 2.48723855,23.5945446 L12.0294072,14.0523759 L21.2517687,23.2770506 C21.4541783,23.4791711 21.7725398,23.6812916 22.2936,23.6812916 C22.8143711,23.6812916 23.1312867,23.4496771 23.3351422,23.2770506 C23.6242988,22.987894 23.7688771,22.6117012 23.7688771,22.2071711 C23.7393831,21.8312675 23.5948048,21.4842795 23.3056482,21.2234602 L23.3050699,21.2237494 Z" id="Fill-1" fill="#FFFFFF" mask="url(#mask-2)"></path>
            </g>
        </g>
    </g>
</svg>