<?xml version="1.0" encoding="UTF-8"?>
<svg width="30px" height="13px" viewBox="0 0 30 13" version="1.1" xmlns="http://www.w3.org/2000/svg" xmlns:xlink="http://www.w3.org/1999/xlink">
    <!-- Generator: Sketch 43.1 (39012) - http://www.bohemiancoding.com/sketch -->
    <title>Page 1</title>
    <desc>Created with Sketch.</desc>
    <defs></defs>
    <g id="Page-1" stroke="none" stroke-width="1" fill="none" fill-rule="evenodd">
        <g id="iPhone-7-Copy-26" transform="translate(-286.000000, -415.000000)" fill="#FFFFFF">
            <g id="Group" transform="translate(41.000000, 394.000000)">
                <path d="M248.83575,26.22675 L252.14475,22.92175 C252.58175,22.48075 252.58175,21.76975 252.14475,21.32775 C251.70275,20.89075 250.99175,20.89075 250.55075,21.32775 L245.32775,26.55075 C244.89075,26.99275 244.89075,27.70275 245.32775,28.14475 C247.89475,30.70675 250.14875,32.96075 250.54675,33.35975 C250.98475,33.80075 251.69875,33.80075 252.13675,33.35975 C252.57775,32.92175 252.57775,32.20675 252.13675,31.76975 L248.84375,28.47675 L273.87075,28.47675 C274.16775,28.47675 274.45275,28.35975 274.66775,28.14875 C274.87875,27.93775 274.99575,27.65275 274.99575,27.35175 C274.99575,27.05475 274.87875,26.76975 274.66775,26.55475 C274.45275,26.34375 274.16775,26.22675 273.87075,26.22675 L248.83575,26.22675 Z" id="Page-1" transform="translate(259.997875, 27.345250) rotate(-180.000000) translate(-259.997875, -27.345250) "></path>
            </g>
        </g>
    </g>
</svg>