<?xml version="1.0" encoding="UTF-8"?>
<svg class="fleh" width="115px" height="36px" viewBox="0 0 115 36" version="1.1" xmlns="http://www.w3.org/2000/svg" xmlns:xlink="http://www.w3.org/1999/xlink">
    <!-- Generator: Sketch 43.2 (39069) - http://www.bohemiancoding.com/sketch -->
    <title>Group</title>
    <desc>Created with Sketch.</desc>
    <defs>
        <polygon id="path-1" points="114.857519 12.5657411 114.857519 30.2153545 100.912757 30.2153545 100.912757 12.5657411 114.857519 12.5657411"></polygon>
        <polygon id="path-3" points="31.1766789 0.935262206 0.855932203 0.935262206 0.855932203 36.0572658 31.1766789 36.0572658 31.1766789 0.935262206"></polygon>
    </defs>
    <g id="Page-1" stroke="none" stroke-width="1" fill="none" fill-rule="evenodd">
        <g id="iPhone-7-Copy-68" transform="translate(-129.000000, -366.000000)">
            <g id="Group-4" transform="translate(98.000000, 352.000000)">
                <g id="Group" transform="translate(31.000000, 13.000000)">
                    <mask id="mask-2" fill="white">
                        <use xlink:href="#path-1"></use>
                    </mask>
                    <g id="Clip-2"></g>
                    <path d="M107.679225,12.5657411 C111.429174,12.5657411 113.466642,13.9559042 114.438507,16.0569487 C114.729005,16.6390008 114.566954,16.9627314 114.050291,17.1887903 L112.951085,17.6400243 C112.368762,17.8994507 112.20671,17.8017791 111.884155,17.2851361 C111.269555,16.0246861 110.234682,15.1843125 107.743559,15.1843125 C105.254647,15.1843125 104.057944,15.960382 104.057944,17.511416 C104.057944,19.5813028 105.770425,19.8396243 108.454551,20.0645784 C112.142597,20.4203505 114.857673,21.2297874 114.857673,25.0422948 C114.857673,28.1132051 112.627203,30.2153545 108.098392,30.2153545 C104.412777,30.2153545 102.01915,28.8906004 101.01766,26.2397664 C100.791496,25.7220185 100.92127,25.3993928 101.502266,25.2053755 L102.602579,24.8173408 C103.119462,24.6566908 103.377904,24.720995 103.637451,25.3030471 C104.284109,26.9837943 105.738148,27.6299295 108.003106,27.6299295 C110.751566,27.6299295 112.04488,26.7575144 112.04488,25.1733339 C112.04488,23.2342652 110.459741,22.878493 107.743559,22.6188456 C104.510494,22.2964409 101.179712,21.7464305 101.179712,17.576825 C101.179712,14.5702189 103.37901,12.5657411 107.679225,12.5657411" id="Fill-1" fill="#343845"></path>
                    <path d="M91.5087918,12.5657411 C95.2587408,12.5657411 97.2962086,13.9559042 98.2667472,16.0569487 C98.558572,16.6390008 98.3954154,16.9627314 97.8798582,17.1887903 L96.779546,17.6400243 C96.1972229,17.8994507 96.036277,17.8017791 95.7123957,17.2851361 C95.098016,16.0246861 94.0631433,15.1843125 91.5717995,15.1843125 C89.0831086,15.1843125 87.8875111,15.960382 87.8875111,17.511416 C87.8875111,19.5813028 89.5997712,19.8396243 92.2827909,20.0645784 C95.9708375,20.4203505 98.6859138,21.2297874 98.6859138,25.0422948 C98.6859138,28.1132051 96.4554436,30.2153545 91.9279584,30.2153545 C88.2410171,30.2153545 85.8487168,28.8906004 84.8461217,26.2397664 C84.6197364,25.7220185 84.74951,25.3993928 85.3307278,25.2053755 L86.43104,24.8173408 C86.9479237,24.6566908 87.2063655,24.720995 87.4659127,25.3030471 C88.11257,26.9837943 89.5666092,27.6299295 91.8315678,27.6299295 C94.580027,27.6299295 95.8744469,26.7575144 95.8744469,25.1733339 C95.8744469,23.2342652 94.2893076,22.878493 91.5717995,22.6188456 C88.3387342,22.2964409 85.0079519,21.7464305 85.0079519,17.576825 C85.0079519,14.5702189 87.2063655,12.5657411 91.5087918,12.5657411" id="Fill-4" fill="#343845"></path>
                    <path d="M78.9906567,26.6896967 C78.9906567,27.1420356 78.8942661,27.2397072 78.5047242,27.401462 C77.7616763,27.6597835 76.6624695,27.7883918 74.9155,27.7883918 C71.6813293,27.7883918 71.003721,26.7551057 71.003721,25.0745795 C71.003721,23.2318565 71.9408766,22.3594413 74.9811606,22.3594413 C76.5660789,22.3594413 78.3439995,22.5545636 78.9906567,22.616437 L78.9906567,26.6896967 Z M75.2062194,12.5657632 C71.9088201,12.5657632 69.7413575,13.827539 68.6421507,15.9604041 C68.3516524,16.5413513 68.5123771,16.8328193 69.0626438,17.0590992 L70.0652389,17.5114381 C70.6488885,17.737497 70.7773356,17.6400464 71.1323892,17.1234034 C71.9088201,15.8306909 73.2019135,15.1522931 75.1429907,15.1522931 C78.1821693,15.1522931 78.9906567,16.7031061 78.9906567,18.9981679 L78.9906567,20.2263553 C78.4403901,20.1620511 76.8875283,20.0002963 75.3037154,20.0002963 C70.1605241,20.0002963 68.0907787,21.2930088 68.0907787,25.0756844 C68.0907787,28.3715488 69.4818103,30.2140507 75.1739418,30.2140507 C77.6962368,30.2140507 79.5384915,29.891646 80.7365208,29.3738981 C81.6413988,28.9869683 81.8998407,28.6619119 81.8998407,27.5311752 L81.8998407,19.0945137 C81.8998407,15.4426562 80.4458014,12.5657632 75.2062194,12.5657632 L75.2062194,12.5657632 Z" id="Fill-6" fill="#343845"></path>
                    <path d="M66.149812,29.7296924 L64.7267239,29.7296924 C63.6931776,29.7296924 63.3370187,29.6010841 63.0451939,28.9869904 L59.6180209,22.0691003 C58.6474823,20.1620732 57.7423832,19.5159379 55.3180264,19.5159379 L52.794626,19.5159379 L52.794626,28.8893188 C52.794626,29.5036334 52.5682407,29.7296924 51.9215835,29.7296924 L50.4984953,29.7296924 C49.8841156,29.7296924 49.6577303,29.5036334 49.6577303,28.8893188 L49.6577303,7.62011045 C49.6577303,7.00712166 49.8841156,6.77973685 50.4984953,6.77973685 L51.9215835,6.77973685 C52.5682407,6.77973685 52.794626,7.00712166 52.794626,7.62011045 L52.794626,16.6710866 L55.6405813,16.6710866 L62.5285313,7.49150213 C63.0131374,6.87740846 63.2406281,6.78084174 64.2421178,6.78084174 L65.8259307,6.78084174 C66.4082538,6.78084174 66.570084,7.20113902 66.2475291,7.58917374 L58.7772559,17.2851803 C60.4587859,17.8672323 61.5590981,19.0635991 62.4962537,20.9381426 L66.603467,28.8559513 C66.8619088,29.3427625 66.7964693,29.7296924 66.149812,29.7296924" id="Fill-8" fill="#343845"></path>
                    <mask id="mask-4" fill="white">
                        <use xlink:href="#path-3"></use>
                    </mask>
                    <g id="Clip-11"></g>
                    <path d="M30.5198145,2.51972995 C29.3611373,0.848484738 27.0676595,0.433048933 25.395636,1.5914077 C18.8662767,6.11435454 13.0644898,11.9527744 8.22019783,18.7968583 L8.22019783,11.4445285 C8.22019783,9.41154477 6.57072436,7.76416503 4.53812029,7.76416503 C2.50529513,7.76416503 0.855821664,9.41154477 0.855821664,11.4445285 L0.855821664,32.3769686 C0.855821664,32.4412728 0.85714814,32.4996106 0.860685411,32.551982 C0.925019518,33.8659082 1.69061751,35.1013878 2.96248734,35.7026648 C3.47096998,35.9430873 4.00686647,36.0573321 4.53568841,36.0573321 C5.91456068,36.0573321 7.23772094,35.2799368 7.8651443,33.9505422 C13.0585207,22.9867936 20.5703568,13.8880865 29.5908388,7.64041819 C31.2628624,6.48449016 31.6795971,4.19097515 30.5198145,2.51972995" id="Fill-10" fill="#343845"></path>
                    <path d="M22.0410212,20.3942753 C21.8778646,20.208655 21.6992325,20.0431437 21.5099885,19.899067 C19.8868235,21.7261006 18.3529746,23.6676001 16.9084417,25.707655 L24.7275782,34.6015169 C25.4562559,35.4299578 26.4721158,35.8537907 27.4950502,35.8537907 C28.3572599,35.8537907 29.2254388,35.5525997 29.9244919,34.9371802 C31.4521506,33.5958529 31.6022635,31.2698543 30.2603115,29.7426858 L22.0410212,20.3942753" id="Fill-13" fill="#343845"></path>
                </g>
            </g>
        </g>
    </g>
</svg>
