<?xml version="1.0" encoding="UTF-8"?>
<svg width="115px" height="36px" viewBox="0 0 115 36" version="1.1" xmlns="http://www.w3.org/2000/svg" xmlns:xlink="http://www.w3.org/1999/xlink">
    <!-- Generator: Sketch 43.2 (39069) - http://www.bohemiancoding.com/sketch -->
    <title>Page 1 Copy 2</title>
    <desc>Created with Sketch.</desc>
    <defs>
        <polygon id="path-1" points="14.073694 0.152959928 14.073694 17.8025733 0.1289322 17.8025733 0.1289322 0.152959928 14.073694 0.152959928"></polygon>
        <polygon id="path-3" points="30.3207467 0.0132585895 0 0.0132585895 0 35.1352622 30.3207467 35.1352622 30.3207467 0.0132585895"></polygon>
    </defs>
    <g id="Page-1" stroke="none" stroke-width="1" fill="none" fill-rule="evenodd">
        <g id="iPhone-7-Copy-69" transform="translate(-129.000000, -366.000000)">
            <g id="Group-5" transform="translate(98.000000, 352.000000)">
                <g id="Page-1-Copy-2" transform="translate(31.855932, 13.714286)">
                    <g id="Group-3" transform="translate(99.927892, 11.698495)">
                        <mask id="mask-2" fill="white">
                            <use xlink:href="#path-1"></use>
                        </mask>
                        <g id="Clip-2"></g>
                        <path d="M6.89540042,0.152959928 C10.6453493,0.152959928 12.6828172,1.54312304 13.6546822,3.64416752 C13.9451806,4.2262196 13.7831294,4.54995016 13.2664668,4.77600911 L12.16726,5.22724311 C11.5849368,5.48666951 11.4228856,5.3889979 11.1003308,4.87235486 C10.48573,3.61190495 9.4508573,2.77153136 6.95973452,2.77153136 C4.47082255,2.77153136 3.27411971,3.5476008 3.27411971,5.09863479 C3.27411971,7.16852159 4.98660081,7.42684311 7.6707259,7.65179718 C11.3587726,8.00756933 14.0738488,8.81700622 14.0738488,12.6295136 C14.0738488,15.7004239 11.8433787,17.8025733 7.31456697,17.8025733 C3.62895216,17.8025733 1.23532541,16.4778192 0.23383569,13.8269852 C0.00767145546,13.3092373 0.137445068,12.9866116 0.718441753,12.7925943 L1.81875397,12.4045596 C2.33563762,12.2439097 2.59407945,12.3082138 2.85362668,12.8902659 C3.50028395,14.5710131 4.95432321,15.2171484 7.21928175,15.2171484 C9.96774095,15.2171484 11.2610555,14.3447332 11.2610555,12.7605527 C11.2610555,10.821484 9.67591613,10.4657118 6.95973452,10.2060644 C3.72666926,9.88365975 0.395886896,9.33364926 0.395886896,5.16404383 C0.395886896,2.15743769 2.59518485,0.152959928 6.89540042,0.152959928" id="Fill-1" fill="#FFFFFF" mask="url(#mask-2)"></path>
                    </g>
                    <path d="M90.6528596,11.8514554 C94.4028086,11.8514554 96.4402764,13.2416185 97.410815,15.342663 C97.7026398,15.9247151 97.5394832,16.2484456 97.023926,16.4745046 L95.9236138,16.9257386 C95.3412907,17.185165 95.1803448,17.0874934 94.8564635,16.5708503 C94.2420838,15.3104004 93.2072111,14.4700268 90.7158673,14.4700268 C88.2271764,14.4700268 87.0315789,15.2460963 87.0315789,16.7971303 C87.0315789,18.8670171 88.743839,19.1253386 91.4268587,19.3502927 C95.1149053,19.7060648 97.8299816,20.5155017 97.8299816,24.3280091 C97.8299816,27.3989194 95.5995114,29.5010688 91.0720262,29.5010688 C87.3850849,29.5010688 84.9927846,28.1763147 83.9901895,25.5254807 C83.7638042,25.0077328 83.8935778,24.6851071 84.4747956,24.4910898 L85.5751078,24.103055 C86.0919915,23.9424051 86.3504333,24.0067093 86.6099805,24.5887614 C87.2566378,26.2695086 88.710677,26.9156438 90.9756356,26.9156438 C93.7240948,26.9156438 95.0185147,26.0432286 95.0185147,24.4590482 C95.0185147,22.5199795 93.4333754,22.1642073 90.7158673,21.9045599 C87.482802,21.5821552 84.1520196,21.0321447 84.1520196,16.8625393 C84.1520196,13.8559332 86.3504333,11.8514554 90.6528596,11.8514554" id="Fill-4" fill="#FFFFFF"></path>
                    <path d="M78.1347245,25.975411 C78.1347245,26.4277498 78.0383339,26.5254214 77.648792,26.6871762 C76.9057441,26.9454978 75.8065373,27.0741061 74.0595678,27.0741061 C70.8253971,27.0741061 70.1477888,26.04082 70.1477888,24.3602938 C70.1477888,22.5175708 71.0849444,21.6451556 74.1252284,21.6451556 C75.7101467,21.6451556 77.4880673,21.8402779 78.1347245,21.9021513 L78.1347245,25.975411 Z M74.3502872,11.8514775 C71.0528879,11.8514775 68.8854253,13.1132533 67.7862185,15.2461184 C67.4957202,15.8270656 67.6564449,16.1185336 68.2067116,16.3448135 L69.2093067,16.7971524 C69.7929563,17.0232113 69.9214034,16.9257607 70.276457,16.4091176 C71.0528879,15.1164052 72.3459813,14.4380073 74.2870585,14.4380073 C77.3262371,14.4380073 78.1347245,15.9888204 78.1347245,18.2838822 L78.1347245,19.5120695 C77.5844579,19.4477654 76.0315961,19.2860106 74.4477832,19.2860106 C69.3045919,19.2860106 67.2348465,20.5787231 67.2348465,24.3613987 C67.2348465,27.657263 68.6258781,29.499765 74.3180096,29.499765 C76.8403046,29.499765 78.6825593,29.1773603 79.8805886,28.6596124 C80.7854666,28.2726826 81.0439085,27.9476261 81.0439085,26.8168894 L81.0439085,18.380228 C81.0439085,14.7283705 79.5898692,11.8514775 74.3502872,11.8514775 L74.3502872,11.8514775 Z" id="Fill-6" fill="#FFFFFF"></path>
                    <path d="M65.2938798,29.0154067 L63.8707917,29.0154067 C62.8372454,29.0154067 62.4810865,28.8867983 62.1892617,28.2727047 L58.7620887,21.3548146 C57.7915501,19.4477875 56.886451,18.8016522 54.4620942,18.8016522 L51.9386938,18.8016522 L51.9386938,28.1750331 C51.9386938,28.7893477 51.7123085,29.0154067 51.0656513,29.0154067 L49.6425631,29.0154067 C49.0281834,29.0154067 48.8017981,28.7893477 48.8017981,28.1750331 L48.8017981,6.90582474 C48.8017981,6.29283595 49.0281834,6.06545114 49.6425631,6.06545114 L51.0656513,6.06545114 C51.7123085,6.06545114 51.9386938,6.29283595 51.9386938,6.90582474 L51.9386938,15.9568009 L54.7846491,15.9568009 L61.6725991,6.77721642 C62.1572052,6.16312275 62.3846959,6.06655602 63.3861856,6.06655602 L64.9699985,6.06655602 C65.5523216,6.06655602 65.7141518,6.48685331 65.3915969,6.87488803 L57.9213237,16.5708945 C59.6028537,17.1529466 60.7031659,18.3493133 61.6403215,20.2238569 L65.7475348,28.1416656 C66.0059766,28.6284768 65.9405371,29.0154067 65.2938798,29.0154067" id="Fill-8" fill="#FFFFFF"></path>
                    <g id="Group-12" transform="translate(0.000000, 0.207718)">
                        <mask id="mask-4" fill="white">
                            <use xlink:href="#path-3"></use>
                        </mask>
                        <g id="Clip-11"></g>
                        <path d="M29.6638823,1.59772633 C28.5052051,-0.0735188788 26.2117273,-0.488954684 24.5397038,0.669404087 C18.0103445,5.19235092 12.2085576,11.0307708 7.36426563,17.8748547 L7.36426563,10.5225249 C7.36426563,8.48954116 5.71479216,6.84216141 3.68218808,6.84216141 C1.64936292,6.84216141 -0.000110539704,8.48954116 -0.000110539704,10.5225249 L-0.000110539704,31.454965 C-0.000110539704,31.5192692 0.00121593674,31.577607 0.00475320728,31.6299784 C0.069087315,32.9439046 0.834685306,34.1793842 2.10655514,34.7806612 C2.61503778,35.0210837 3.15093426,35.1353285 3.67975621,35.1353285 C5.05862848,35.1353285 6.38178874,34.3579332 7.0092121,33.0285386 C12.2025885,22.06479 19.7144246,12.9660829 28.7349066,6.71841458 C30.4069302,5.56248655 30.8236649,3.26897154 29.6638823,1.59772633" id="Fill-10" fill="#FFFFFF" mask="url(#mask-4)"></path>
                    </g>
                    <path d="M20.6540563,19.1847813 C19.0308913,21.0118149 17.4970424,22.9533144 16.0525095,24.9933693 L23.871646,33.8872312 C24.6003237,34.715672 25.6161836,35.139505 26.639118,35.139505 C27.5013277,35.139505 28.3695066,34.838314 29.0685597,34.2228945 C30.5962184,32.8815672 30.7463313,30.5555686 29.4043793,29.0284001 L21.185089,19.6799896 C21.0219324,19.4943693 20.8433003,19.3288579 20.6540563,19.1847813 Z" id="Fill-13" fill="#FFFFFF"></path>
                </g>
            </g>
        </g>
    </g>
</svg>