<?xml version="1.0" encoding="UTF-8"?>
<svg width="18px" height="41px" viewBox="0 0 18 41" version="1.1" xmlns="http://www.w3.org/2000/svg" xmlns:xlink="http://www.w3.org/1999/xlink">
    <!-- Generator: Sketch 43.2 (39069) - http://www.bohemiancoding.com/sketch -->
    <title>Page 1</title>
    <desc>Created with Sketch.</desc>
    <defs></defs>
    <g id="Page-1" stroke="none" stroke-width="1" fill="none" fill-rule="evenodd">
        <g id="iPhone-7-Copy-52" transform="translate(-178.000000, -511.000000)" fill="#41C3A6">
            <path d="M172.088184,529.971167 L176.611125,525.453693 C177.208443,524.850908 177.208443,523.87907 176.611125,523.274918 C176.006973,522.6776 175.035135,522.6776 174.43235,523.274918 L167.293238,530.414029 C166.695921,531.018182 166.695921,531.988653 167.293238,532.592805 C170.801969,536.094701 173.882872,539.175604 174.426882,539.720981 C175.025567,540.323767 176.001505,540.323767 176.60019,539.720981 C177.202976,539.122296 177.202976,538.144991 176.60019,537.547673 L172.099119,533.046602 L206.307532,533.046602 C206.71349,533.046602 207.103045,532.88668 207.39692,532.598272 C207.685327,532.309865 207.84525,531.92031 207.84525,531.508885 C207.84525,531.102927 207.685327,530.713372 207.39692,530.419497 C207.103045,530.131089 206.71349,529.971167 206.307532,529.971167 L172.088184,529.971167 Z" id="Page-1" transform="translate(187.345250, 531.500000) rotate(-90.000000) translate(-187.345250, -531.500000) "></path>
        </g>
    </g>
</svg>