<?xml version="1.0" encoding="UTF-8"?>
<svg width="87px" height="77px" viewBox="0 0 87 77" version="1.1" xmlns="http://www.w3.org/2000/svg" xmlns:xlink="http://www.w3.org/1999/xlink">
    <!-- Generator: Sketch 43.2 (39069) - http://www.bohemiancoding.com/sketch -->
    <title>Group 13</title>
    <desc>Created with Sketch.</desc>
    <defs>
        <polygon id="path-1" points="0 10.7058824 0 42.9218403 86.999949 42.9218403 86.999949 10.7058824 0 10.7058824"></polygon>
        <polygon id="path-3" points="47.9180373 0 38.1578947 0 38.1578947 9.65089243 47.9180373 9.65089243"></polygon>
    </defs>
    <g id="Page-1" stroke="none" stroke-width="1" fill="none" fill-rule="evenodd">
        <g id="iPhone-7-Copy-52" transform="translate(-144.000000, -402.000000)">
            <g id="Group-13" transform="translate(144.000000, 402.000000)">
                <path d="M61.8576909,46.4503207 L49.862396,55.7224706 C49.1896753,56.2423132 48.3497515,56.5254208 47.4955542,56.5163479 L34.2153101,56.393864 C33.5240679,56.3874793 32.9458238,55.8483149 32.8985855,55.1663365 C32.8732671,54.7977087 32.9998589,54.4460505 33.2555913,54.1762162 C33.5103042,53.9072221 33.8554156,53.7595357 34.2275445,53.7595357 L34.2312827,53.7595357 L45.7927671,53.7897786 L45.8043218,53.7897786 C48.0744781,53.7897786 50.0013921,52.0405605 50.1937437,49.8030868 C50.2968863,48.6064744 49.9106538,47.4516981 49.1069234,46.5512985 C48.3028531,45.6508989 47.191564,45.1292081 45.9781519,45.0818275 L27.5265054,44.3628856 C26.7537007,44.3326427 25.974439,44.3714544 25.2097906,44.4783128 C21.7862046,44.9556473 18.7870835,47.234621 17.3830191,50.4255874 C16.1082652,53.3228612 14.1538238,55.9430761 11.7307378,58.0027885 L8.12856399,61.0648864 C7.53060892,61.5733038 7.46264017,62.4646305 7.97682376,63.05588 C8.25906399,63.3806556 8.65855032,63.5473278 9.06007571,63.5473278 C9.38955423,63.5473278 9.72073196,63.4350929 9.99005813,63.2060866 L13.592232,60.1436527 C16.3398687,57.8080575 18.5559898,54.8371925 20.0013452,51.5518009 C21.0123804,49.2543454 23.1607027,47.615346 25.6084273,47.2737688 C26.2043433,47.1907687 26.8116441,47.1603577 27.4136773,47.183712 L45.8654937,47.90299 C46.2923374,47.9194556 46.6831577,48.1029294 46.9659077,48.4198083 C47.2484878,48.736351 47.3845952,49.1424466 47.348062,49.5636635 C47.2806031,50.3508201 46.6027847,50.966096 45.8041519,50.966096 L45.8002437,50.966096 L34.2385894,50.935685 L34.2277144,50.935685 C33.073605,50.935685 31.9602769,51.4128514 31.1711597,52.2458764 C30.3796636,53.0814217 29.9708316,54.2160361 30.0495054,55.3582112 C30.1971675,57.5019318 32.0151616,59.1970487 34.1882925,59.2168746 L47.4683667,59.3395265 C48.9646988,59.3516237 50.4408101,58.8588317 51.6209175,57.946671 L63.6163824,48.674521 C64.4975972,47.9930467 65.770482,48.1071298 66.5135503,48.9346103 C66.8917964,49.3554913 67.0807495,49.8968399 67.0459156,50.4586866 C67.0110816,51.0205332 66.7565386,51.5349993 66.329355,51.9071555 L57.6879781,59.4321035 C57.0963101,59.9474096 57.0392163,60.8395764 57.5603667,61.4244413 C58.0815171,62.0094742 58.9838023,62.0662638 59.5753003,61.5507896 L68.2168472,54.0258416 C69.2180269,53.1538368 69.8144527,51.9483195 69.896355,50.6314074 C69.9779175,49.3143273 69.5349312,48.0456359 68.6486187,47.0590439 C66.9070894,45.1209753 63.9241109,44.8531573 61.8576909,46.4503207" id="Fill-1" fill="#41C3A6"></path>
                <path d="M53.5513743,63.0580432 L50.7486829,65.4984807 C49.4698508,66.612093 47.827386,67.2332494 46.1235793,67.2476988 L25.5548762,67.4209237 C24.1421457,67.4326848 22.7895676,67.9580719 21.7464172,68.9001396 L15.7281243,74.3359724 C15.1456321,74.8616955 15.1050207,75.7548704 15.6368762,76.3304944 C15.9184368,76.635444 16.3043293,76.7900191 16.6915813,76.7900191 C17.0353332,76.7900191 17.3802746,76.6682072 17.6540188,76.4207192 L23.6724817,70.9852224 C24.1948215,70.5134325 24.8719602,70.2503189 25.579345,70.2442703 L46.1480481,70.0710455 C48.5383391,70.0510515 50.8424797,69.1797188 52.636175,67.6176708 L55.4388664,65.1770654 C56.0305344,64.6619273 56.087968,63.7695925 55.5664778,63.1845596 C55.0454973,62.5995266 54.1432121,62.5429051 53.5513743,63.0580432" id="Fill-3" fill="#41C3A6"></path>
                <mask id="mask-2" fill="white">
                    <use xlink:href="#path-1"></use>
                </mask>
                <g id="Clip-6"></g>
                <path d="M85.5723164,40.0979896 L74.6191523,40.0979896 C73.8703066,23.7656248 60.199582,10.7058824 43.5,10.7058824 C33.1351055,10.7058824 23.4782754,15.7826642 17.6681367,24.2861394 C17.2266797,24.9323303 17.3984707,25.8098797 18.0518203,26.2463861 C18.7051699,26.6827246 19.5930117,26.5131961 20.0344687,25.8670052 C25.312752,18.1414457 34.0847988,13.529565 43.5,13.529565 C58.6245762,13.529565 71.0156191,25.3231363 71.761916,40.0979896 L15.2375742,40.0979896 C15.4029082,36.7801708 16.1517539,33.5626578 17.4705176,30.5145053 C17.780625,29.7977476 17.4443496,28.9679149 16.719293,28.661285 C15.9944062,28.3546552 15.1551621,28.6871596 14.8450547,29.4040853 C13.3737012,32.8047361 12.5477109,36.3962535 12.380168,40.0983256 L1.42785352,40.0983256 C0.639416016,40.0983256 0,40.7304031 0,41.5099989 C0,42.2897628 0.639416016,42.9218403 1.42785352,42.9218403 L85.5723164,42.9218403 C86.3609238,42.9218403 87,42.2897628 87,41.5099989 C87,40.7304031 86.3609238,40.0979896 85.5723164,40.0979896" id="Fill-5" fill="#41C3A6"></path>
                <mask id="mask-4" fill="white">
                    <use xlink:href="#path-3"></use>
                </mask>
                <g id="Clip-9"></g>
                <path d="M43.0378811,2.8238507 C44.1540979,2.8238507 45.0625002,3.72189806 45.0625002,4.82576544 C45.0625002,5.92946481 44.1540979,6.82768019 43.0378811,6.82768019 C41.9214943,6.82768019 41.0134318,5.92946481 41.0134318,4.82576544 C41.0134318,3.72189806 41.9214943,2.8238507 43.0378811,2.8238507 M43.0378811,9.65102684 C45.7287639,9.65102684 47.9180373,7.48630426 47.9180373,4.82559743 C47.9180373,2.1648906 45.7287639,0 43.0378811,0 C40.3469983,0 38.1578947,2.1648906 38.1578947,4.82559743 C38.1578947,7.48630426 40.3469983,9.65102684 43.0378811,9.65102684" id="Fill-8" fill="#41C3A6"></path>
            </g>
        </g>
    </g>
</svg>