<?xml version="1.0" encoding="UTF-8"?>
<svg width="67px" height="67px" viewBox="0 0 67 67" version="1.1" xmlns="http://www.w3.org/2000/svg" xmlns:xlink="http://www.w3.org/1999/xlink">
    <!-- Generator: Sketch 43.1 (39012) - http://www.bohemiancoding.com/sketch -->
    <title>Page 1</title>
    <desc>Created with Sketch.</desc>
    <defs></defs>
    <g id="Page-1" stroke="none" stroke-width="1" fill="none" fill-rule="evenodd">
        <g id="iPhone-7-Copy-18" transform="translate(-155.000000, -238.000000)" fill="#8D8D8D">
            <g id="Page-1" transform="translate(155.000000, 238.000000)">
                <path d="M27.8723368,0.862063158 L20.9957053,18.7392842 L2.47073684,0.214315789 L0.687157895,1.99890526 L64.9970526,66.3088 L66.7816421,64.5252211 L58.6145684,56.3581474 L61.8947368,36.6842105 L64.4210526,36.6842105 L64.4210526,31.6315789 L49.6461474,31.6315789 L37.8118737,0.862063158 L35.4512842,1.76951579 L46.9379368,31.6315789 L33.888,31.6315789 L22.9500632,20.6936421 L30.2288842,1.76951579 L27.8723368,0.862063158 Z M59.3330526,36.6842105 L56.4197053,54.1632842 L44.2105263,41.9541053 L44.2105263,41.7368421 L43.9932632,41.7368421 L38.9406316,36.6842105 L59.3330526,36.6842105 Z" id="Fill-1"></path>
                <polygon id="Fill-2" points="54.7028211 64.4736842 10.9813895 64.4736842 6.35115789 36.6842105 31.7962105 36.6842105 26.7435789 31.6315789 18.7462737 31.6315789 20.9684211 25.8564211 19.0100211 23.8990316 16.0380632 31.6315789 1.26315789 31.6315789 1.26315789 36.6842105 3.78947368 36.6842105 8.84210526 67 56.8421053 67 57.5959579 62.4839579 55.4010947 60.2890947"></polygon>
                <polygon id="Fill-3" points="21.4736842 56.8947368 24 56.8947368 24 41.7368421 21.4736842 41.7368421"></polygon>
                <polygon id="Fill-4" points="31.5789474 56.8947368 34.1052632 56.8947368 34.1052632 41.7368421 31.5789474 41.7368421"></polygon>
                <polygon id="Fill-5" points="44.2105263 56.8947368 44.2105263 49.0985263 41.6842105 46.5722105 41.6842105 56.8947368"></polygon>
            </g>
        </g>
    </g>
</svg>