<?xml version="1.0" encoding="UTF-8"?>
<svg width="78px" height="78px" viewBox="0 0 78 78" version="1.1" xmlns="http://www.w3.org/2000/svg" xmlns:xlink="http://www.w3.org/1999/xlink">
    <!-- Generator: Sketch 43.2 (39069) - http://www.bohemiancoding.com/sketch -->
    <title>favorite</title>
    <desc>Created with Sketch.</desc>
    <defs></defs>
    <g id="Page-1" stroke="none" stroke-width="1" fill="none" fill-rule="evenodd">
        <g id="iPhone-7-Copy-19" transform="translate(-148.000000, -250.000000)" fill-rule="nonzero" fill="#FFFFFF">
            <g id="favorite" transform="translate(148.000000, 250.000000)">
                <path d="M71.5659883,17.7128421 C71.1585029,17.0871696 70.3213333,16.9104912 69.6958129,17.3176725 C69.0702924,17.7250058 68.893462,18.5621754 69.3007953,19.1876959 C73.1241637,25.0595906 75.1450175,31.8843626 75.1450175,38.9241287 C75.1450175,58.896386 58.896538,75.1450175 38.9242807,75.1450175 C18.9520234,75.1450175 2.70323977,58.896386 2.70323977,38.9241287 C2.70323977,18.9518713 18.9518713,2.70323977 38.9241287,2.70323977 C49.3521053,2.70323977 59.2803041,7.20321637 66.1631579,15.0489825 C66.6553333,15.6101871 67.5093801,15.6659883 68.0705848,15.1736608 C68.6316374,14.6814854 68.6875906,13.8274386 68.1951111,13.2662339 C60.7992515,4.83554386 50.1304327,0.000152046784 38.9241287,0.000152046784 C28.5271696,0.000152046784 18.752538,4.04900585 11.4007719,11.4007719 C4.0488538,18.752386 0,28.5271696 0,38.9241287 C0,49.3210877 4.0488538,59.0958713 11.4007719,66.4476374 C18.752538,73.7994035 28.5270175,77.8482573 38.9242807,77.8482573 C49.3210877,77.8482573 59.0960234,73.7994035 66.4477895,66.4476374 C73.7995556,59.0958713 77.8484094,49.3210877 77.8484094,38.9241287 C77.8479532,31.359345 75.6758129,24.0246082 71.5659883,17.7128421 Z" id="Shape"></path>
                <path d="M38.9241287,13.2970994 C32.9848772,13.2970994 27.1955439,15.3754269 22.6224327,19.1496842 C18.1107485,22.8730058 14.9837544,28.0620585 13.8178596,33.760924 C13.6682456,34.492269 14.1397427,35.2064327 14.8710877,35.3560468 C15.6019766,35.5056608 16.3165965,35.0341637 16.4663626,34.3028187 C18.6365263,23.6977076 28.0813684,16.0003392 38.9244327,16.0003392 C51.5646901,16.0003392 61.8482222,26.2840234 61.8482222,38.9242807 C61.8482222,51.564538 51.564538,61.8480702 38.9242807,61.8480702 C26.2838713,61.8480702 16.0003392,51.564386 16.0003392,38.9241287 C16.0003392,38.177883 15.395345,37.5727368 14.6487953,37.5727368 C13.9022456,37.5727368 13.2972515,38.177883 13.2972515,38.9242807 C13.2972515,53.0550526 24.7935088,64.5513099 38.9242807,64.5513099 C53.0549006,64.5513099 64.5511579,53.0552047 64.5511579,38.9242807 C64.5511579,24.7933567 53.0547485,13.2970994 38.9241287,13.2970994 Z" id="Shape"></path>
                <path d="M46.7746082,23.7165614 C43.4566433,23.7165614 40.5432749,25.7489708 38.9239766,28.7888421 C37.3048304,25.7489708 34.3913099,23.7165614 31.073345,23.7165614 C24.9171228,23.7165614 19.9085497,29.5060468 19.9085497,36.6222924 C19.9085497,45.207462 29.6780117,53.3218947 38.0436257,57.6617661 C38.3192865,57.8048421 38.6217076,57.8764561 38.9241287,57.8764561 C39.2265497,57.8764561 39.5286667,57.8051462 39.8044795,57.6620702 C43.6448772,55.6698012 47.3698713,53.1006667 50.293731,50.4279883 C50.8445965,49.9244094 50.8830643,49.0692982 50.3794854,48.5184327 C49.8757544,47.9675673 49.0212515,47.9289474 48.4697778,48.4326784 C45.8077427,50.8660351 42.4309357,53.2133333 38.9241287,55.071193 C30.7443158,50.7384678 22.6116374,43.4212164 22.6116374,36.6222924 C22.6116374,30.9965614 26.4074854,26.4198012 31.073345,26.4198012 C34.6570877,26.4198012 37.5722807,29.9600585 37.5722807,34.3114854 C37.5722807,35.057883 38.1772749,35.6630292 38.9238246,35.6630292 C39.6703743,35.6630292 40.2753684,35.057883 40.2753684,34.3114854 C40.2753684,29.9600585 43.1908655,26.4198012 46.7743041,26.4198012 C51.4401637,26.4198012 55.2360117,30.9967135 55.2360117,36.6222924 C55.2360117,39.2429708 54.0654035,42.0441287 51.7564211,44.9486784 C51.2922222,45.5331462 51.3893801,46.3833918 51.9735439,46.8478947 C52.5578596,47.3120936 53.4081053,47.2153918 53.8726082,46.630924 C56.5711345,43.2366316 57.9390994,39.8692515 57.9390994,36.6224444 C57.9395556,29.5060468 52.9308304,23.7165614 46.7746082,23.7165614 Z" id="Shape"></path>
            </g>
        </g>
    </g>
</svg>