<?xml version="1.0" encoding="UTF-8"?>
<svg width="30px" height="27px" viewBox="0 0 30 27" version="1.1" xmlns="http://www.w3.org/2000/svg" xmlns:xlink="http://www.w3.org/1999/xlink">
    <!-- Generator: Sketch 43.2 (39069) - http://www.bohemiancoding.com/sketch -->
    <title>Group 16 Copy</title>
    <desc>Created with Sketch.</desc>
    <defs>
        <polygon id="path-1" points="0 4.23529412 0 15.3869719 29.9999824 15.3869719 29.9999824 4.23529412 0 4.23529412"></polygon>
        <polygon id="path-3" points="16.5234611 0 13.1578947 0 13.1578947 3.34069353 16.5234611 3.34069353"></polygon>
    </defs>
    <g id="Page-1" stroke="none" stroke-width="1" fill="none" fill-rule="evenodd" opacity="0.453068388">
        <g id="iPhone-7-Copy-54" transform="translate(-305.000000, -271.000000)">
            <g id="Group-3" transform="translate(283.000000, 239.000000)">
                <g id="Group-16-Copy" transform="translate(22.000000, 32.000000)">
                    <path d="M21.3302383,16.0789572 L17.1939297,19.2885475 C16.961957,19.468493 16.6723281,19.5664918 16.3777773,19.5633512 L11.7983828,19.5209529 C11.5600234,19.5187428 11.3606289,19.332109 11.3443398,19.0960396 C11.3356094,18.9684376 11.3792617,18.8467098 11.4674453,18.7533056 C11.5552773,18.6601923 11.6742812,18.60907 11.8026015,18.60907 L11.8038906,18.60907 L15.7906094,18.6195388 L15.7945937,18.6195388 C16.5774062,18.6195388 17.2418594,18.0140402 17.3081875,17.2395301 C17.3437539,16.8253181 17.2105703,16.4255878 16.9334219,16.113911 C16.6561562,15.8022342 16.2729531,15.621649 15.8545351,15.605248 L9.49189841,15.3563835 C9.22541404,15.3459148 8.9567031,15.3593496 8.69303123,15.3963391 C7.51248435,15.5615702 6.47830466,16.3504457 5.99414451,17.455011 C5.5545742,18.4579135 4.88062888,19.364911 4.04508201,20.0778883 L2.8029531,21.1378453 C2.5967617,21.3138359 2.5733242,21.6223721 2.75062888,21.8270354 C2.8479531,21.9394577 2.98570701,21.9971519 3.12416404,21.9971519 C3.23777732,21.9971519 3.35197654,21.9583014 3.44484763,21.87903 L4.68697654,20.8189567 C5.63443748,20.0104815 6.39861716,18.9821051 6.8970156,17.8448542 C7.24564841,17.0495811 7.9864492,16.4822352 8.83049216,16.3639969 C9.03598045,16.3352661 9.24539451,16.3247392 9.45299216,16.3328234 L15.8156875,16.5818042 C15.962875,16.5875039 16.0976406,16.651014 16.1951406,16.7607029 C16.292582,16.8702754 16.3395156,17.0108469 16.3269179,17.1566528 C16.3036562,17.42913 16.0699258,17.6421101 15.7945351,17.6421101 L15.7931875,17.6421101 L11.8064101,17.6315833 L11.8026601,17.6315833 C11.4046914,17.6315833 11.0207851,17.7967563 10.7486758,18.0851111 C10.4757461,18.3743383 10.3347695,18.7670894 10.3618984,19.1624577 C10.4128164,19.9045148 11.0397109,20.4912861 11.7890664,20.4981489 L16.3684023,20.5406053 C16.8843789,20.5447928 17.3933828,20.374211 17.8003164,20.058463 L21.9366836,16.8488727 C22.2405508,16.6129777 22.6794765,16.652468 22.935707,16.9389036 C23.0661367,17.0845931 23.1312929,17.2719831 23.1192812,17.4664684 C23.1072695,17.6609538 23.0194961,17.8390382 22.8721914,17.9678615 L19.8924062,20.5726512 C19.6883828,20.7510264 19.6686953,21.0598534 19.8484023,21.2623066 C20.0281094,21.464818 20.3392422,21.4844759 20.543207,21.3060426 L23.5230508,18.7012529 C23.8682851,18.399405 24.0739492,17.9821106 24.1021914,17.5262564 C24.1303164,17.0703441 23.9775625,16.6311816 23.6719375,16.289669 C23.0714101,15.6187992 22.0427969,15.5260929 21.3302383,16.0789572" id="Fill-1-Copy" fill="#FFFFFF"></path>
                    <path d="M18.4659911,21.8277842 L17.4995458,22.672551 C17.0585692,23.0580322 16.4922021,23.2730479 15.9046825,23.2780496 L8.81202628,23.338012 C8.32487784,23.3420832 7.85847159,23.523948 7.49876456,23.8500483 L5.42349112,25.7316827 C5.22263175,25.9136638 5.20862784,26.2228397 5.39202628,26.4220942 C5.48911612,26.5276537 5.62218253,26.5811605 5.75571769,26.5811605 C5.87425284,26.5811605 5.99319815,26.5389948 6.08759269,26.4533259 L8.16292472,24.5718078 C8.3430419,24.4084959 8.576538,24.3174181 8.82046378,24.3153243 L15.91312,24.2553619 C16.7373583,24.2484409 17.5318896,23.9468257 18.1504052,23.4061168 L19.1168505,22.5612919 C19.3208739,22.3829748 19.3406786,22.0740897 19.1608544,21.8715783 C18.981206,21.6690669 18.6700732,21.6494672 18.4659911,21.8277842" id="Fill-3-Copy" fill="#FFFFFF"></path>
                    <mask id="mask-2" fill="white">
                        <use xlink:href="#path-1"></use>
                    </mask>
                    <g id="Clip-6-Copy"></g>
                    <path d="M29.5076953,14.4094851 L25.7307422,14.4094851 C25.4725195,8.75597419 20.7584766,4.23529412 15,4.23529412 C11.4258984,4.23529412 8.09595703,5.99264169 6.09246094,8.93615233 C5.94023437,9.15983379 5.99947266,9.46360087 6.22476562,9.61469927 C6.45005859,9.7657395 6.75621094,9.70705656 6.9084375,9.48337511 C8.72853516,6.80914296 11.7533789,5.21272274 15,5.21272274 C20.2153711,5.21272274 24.4881445,9.29511279 24.7454883,14.4094851 L5.25433594,14.4094851 C5.31134766,13.2610094 5.56957031,12.1472549 6.02431641,11.0921251 C6.13125,10.8440167 6.01529297,10.5567669 5.76527344,10.4506258 C5.5153125,10.3444847 5.22591797,10.4595824 5.11898438,10.707749 C4.61162109,11.8848973 4.32679687,13.1281149 4.26902344,14.4096014 L0.492363281,14.4096014 C0.220488281,14.4096014 0,14.6283975 0,14.8982576 C0,15.1681758 0.220488281,15.3869719 0.492363281,15.3869719 L29.5076953,15.3869719 C29.7796289,15.3869719 30,15.1681758 30,14.8982576 C30,14.6283975 29.7796289,14.4094851 29.5076953,14.4094851" id="Fill-5-Copy" fill="#FFFFFF"></path>
                    <mask id="mask-4" fill="white">
                        <use xlink:href="#path-3"></use>
                    </mask>
                    <g id="Clip-9-Copy"></g>
                    <path d="M14.8406486,0.977486781 C15.225551,0.977486781 15.5387932,1.28834933 15.5387932,1.67045727 C15.5387932,2.05250705 15.225551,2.36342776 14.8406486,2.36342776 C14.4556877,2.36342776 14.1425627,2.05250705 14.1425627,1.67045727 C14.1425627,1.28834933 14.4556877,0.977486781 14.8406486,0.977486781 M14.8406486,3.34074006 C15.7685393,3.34074006 16.5234611,2.59141301 16.5234611,1.67039911 C16.5234611,0.749385207 15.7685393,0 14.8406486,0 C13.912758,0 13.1578947,0.749385207 13.1578947,1.67039911 C13.1578947,2.59141301 13.912758,3.34074006 14.8406486,3.34074006" id="Fill-8-Copy" fill="#FFFFFF"></path>
                </g>
            </g>
        </g>
    </g>
</svg>