<?xml version="1.0" encoding="UTF-8"?>
<svg width="181px" height="173px" viewBox="0 0 181 173" version="1.1" xmlns="http://www.w3.org/2000/svg" xmlns:xlink="http://www.w3.org/1999/xlink">
    <!-- Generator: Sketch 43.2 (39069) - http://www.bohemiancoding.com/sketch -->
    <title>Group 16</title>
    <desc>Created with Sketch.</desc>
    <defs>
        <polygon id="path-1" points="219.834772 118.205531 219.834772 105 201 105 201 118.205531 219.834772 118.205531"></polygon>
    </defs>
    <g id="Page-1" stroke="none" stroke-width="1" fill="none" fill-rule="evenodd" opacity="0.47022192">
        <g id="iPhone-7-Copy-101">
            <g id="Group-16" transform="translate(-39.000000, -47.000000)">
                <g id="Group-10" opacity="0.4">
                    <polygon id="Fill-3" fill="#FFFFFF" points="34.623937 58.4785 20 47.0749844 27.8385827 37 30.1407874 38.7950781 24.283937 46.324 27.9875591 49.2117344 33.6746457 41.9030781 35.9543307 43.6825469 30.2689764 50.9912031 34.2809449 54.1182813 40.1377953 46.5910938 42.4607874 48.4017813"></polygon>
                    <path d="M193.127087,44.4999688 L185.74063,46.9766563 L188.950551,51.0715156 L193.127087,44.4999688 Z M184.683937,57.8910781 L187.337795,53.612375 L182.875433,47.9201562 L178.111654,49.505375 L176,46.8118906 L195.013543,41 L197.090551,43.650125 L186.897795,60.7146406 L184.683937,57.8910781 Z" id="Fill-22" fill="#FFFFFF"></path>
                    <polygon id="Fill-24" fill="#FFFFFF" points="204.27874 60.2390156 190.574646 67.747125 189 64.8663281 202.702362 57.3582187 199.994803 52.401375 202.555118 51 209.548346 63.79275 206.986299 65.194125"></polygon>
                    <path d="M214.551969,94.8172969 C214.889764,94.309125 215.026614,94.1183437 214.475748,90.8525156 L213.949134,87.7237031 L208.87874,88.57875 L209.438268,91.9000781 C209.582047,92.7516562 209.873071,94.6473281 210.212598,95.1555 C210.474173,95.5353281 211.082205,95.9689219 212.700157,95.696625 C213.767244,95.5145156 214.330236,95.1659062 214.551969,94.8172969 L214.551969,94.8172969 Z M199.822362,97.8975469 L204.563622,97.0962656 C207.331811,96.6297187 207.250394,96.6453281 206.49685,92.172375 L205.973701,89.0713125 L198.545669,90.3235313 L198,87.0854531 L216.28252,84 L217.363465,90.4206562 C218.061575,94.5640781 218.470394,97.9946719 213.372283,98.8549219 C211.179213,99.2260781 209.789921,99.0092812 209.015591,97.7570625 C208.754016,99.8903437 206.327087,100.046437 204.82,100.299656 L200.354173,101.054109 L199.822362,97.8975469 Z" id="Fill-26" fill="#FFFFFF"></path>
                    <mask id="mask-2" fill="white">
                        <use xlink:href="#path-1"></use>
                    </mask>
                    <g id="Clip-29"></g>
                    <polygon id="Fill-28" fill="#FFFFFF" mask="url(#mask-2)" points="201.297953 105 219.835118 105.433594 219.535433 118.205531 216.618268 118.136156 216.841732 108.593625 212.14378 108.484359 211.927244 117.749391 209.037795 117.68175 209.254331 108.414984 204.168346 108.295312 203.944882 117.839578 201 117.770203"></polygon>
                    <path d="M212.70063,134.692156 C213.20126,133.944641 213.429921,132.456547 213.620472,131.558141 L214.277008,128.457078 L209.113071,127.359219 L208.454803,130.46375 C208.264252,131.360422 207.87622,132.926562 208.025197,133.698359 C208.137795,134.234281 208.515433,134.997406 210.093543,135.332141 C211.669921,135.666875 212.378425,135.134422 212.70063,134.692156 M205.56189,129.903547 L206.232283,126.746984 L199,125.210328 L199.680787,122 L217.812598,125.850313 L216.461417,132.218938 C215.602205,136.273906 214.713543,139.669813 209.468189,138.556344 C204.248819,137.446344 204.690551,134.014016 205.56189,129.903547" id="Fill-31" fill="#FFFFFF"></path>
                    <polygon id="Fill-33" fill="#FFFFFF" points="195.931811 139 213.025984 146.173375 208.094173 157.951516 205.403937 156.820703 209.088504 148.020484 204.757795 146.202859 201.178898 154.746391 198.514646 153.629453 202.091811 145.084188 197.40252 143.115672 193.71622 151.915891 191 150.776406"></polygon>
                    <path d="M198.329764,168.569484 L193.675118,162.317062 L190.790866,166.647797 L198.329764,168.569484 Z M182.988661,164.715703 L187.877165,165.905484 L191.885669,159.885469 L188.895748,155.847844 L190.792598,153 L202.237795,169.271906 L200.372126,172.074656 L181,167.702297 L182.988661,164.715703 Z" id="Fill-35" fill="#FFFFFF"></path>
                    <polygon id="Fill-37" fill="#FFFFFF" points="186.400157 184.085859 175 173.396906 177.241575 171 188.641732 181.688953 192.499528 177.566344 194.628504 179.564344 184.673071 190.204734 182.544094 188.208469"></polygon>
                    <path d="M156.383307,205.162375 C156.970551,205.323672 157.19748,205.393047 160.11811,203.840781 L162.91748,202.356156 L160.509606,197.808625 L157.53874,199.385172 C156.776535,199.787547 155.070236,200.663406 154.696063,201.147297 C154.418898,201.51325 154.198898,202.229547 154.968031,203.679484 C155.475591,204.636859 155.98315,205.060047 156.383307,205.162375 L156.383307,205.162375 Z M148.825354,192.137219 L151.077323,196.389906 C152.392126,198.873531 152.352283,198.798953 156.353858,196.674344 L159.128976,195.201859 L155.600315,188.540125 L158.498425,187 L167.182362,203.396781 L161.436378,206.449281 C157.729291,208.417797 154.605984,209.886813 152.184252,205.313266 C151.14315,203.346484 150.911024,201.95725 151.853386,200.828172 C149.750394,201.251359 148.839213,198.994938 148.122047,197.643859 L146,193.635719 L148.825354,192.137219 Z" id="Fill-39" fill="#FFFFFF"></path>
                    <polygon id="Fill-41" fill="#FFFFFF" points="142.203937 195 147.587874 212.754797 135.382205 216.464625 134.535118 213.670547 143.655591 210.899016 142.292283 206.398312 133.43685 209.090062 132.598425 206.322 141.452126 203.631984 139.974488 198.760125 130.855748 201.531656 130 198.709828"></polygon>
                    <path d="M117.736348,215.336078 C118.600757,215.580625 120.083592,215.336078 120.996505,215.237219 L124.147529,214.899016 L123.582804,209.642125 L120.431781,209.980328 C119.5206,210.080922 117.911308,210.197125 117.225324,210.578687 C116.752411,210.852719 116.146111,211.451078 116.317607,213.055375 C116.489104,214.657937 117.21493,215.167844 117.736348,215.336078 M120.062804,207.054437 L123.267529,206.709297 L122.47934,199.350344 L125.739497,199 L127.719497,217.45375 L121.252883,218.149234 C117.135245,218.5915 113.636033,218.799625 113.062647,213.461219 C112.492726,208.147094 115.889733,207.501906 120.062804,207.054437" id="Fill-43" fill="#FFFFFF"></path>
                    <polygon id="Fill-45" fill="#FFFFFF" points="109.14063 200.979922 107.716693 219.482234 95 218.502312 95.2234646 215.590297 104.726772 216.322203 105.088819 211.634187 95.8609449 210.923094 96.0844094 208.037094 105.310551 208.748187 105.700315 203.673406 96.1970079 202.9415 96.423937 200"></polygon>
                    <path d="M81.6286614,211.740188 L86.0927559,205.349016 L81.0812598,203.971922 L81.6286614,211.740188 Z M80.4576378,195.950437 L80.868189,200.967984 L87.8354331,202.886203 L90.7231496,198.772266 L94.0179528,199.681078 L82.1916535,215.677219 L78.9488189,214.784016 L77,195 L80.4576378,195.950437 Z" id="Fill-47" fill="#FFFFFF"></path>
                    <polygon id="Fill-49" fill="#FFFFFF" points="63.3470866 206.190656 69.9159055 192 72.8919685 193.380562 66.3231496 207.571219 71.4420472 209.947313 70.2138583 212.597438 57 206.464687 58.2264567 203.814562"></polygon>
                    <path d="M34.2554025,183.472625 C34.2865836,184.083125 34.2917804,184.319 36.6754025,186.615312 L38.9585521,188.812766 L42.5218592,185.102937 L40.1001269,182.770203 C39.4782371,182.171844 38.1166623,180.820766 37.5415442,180.616109 C37.1067411,180.466953 36.3601269,180.479094 35.2237489,181.663672 C34.4719379,182.445875 34.2276859,183.061578 34.2554025,183.472625 L34.2554025,183.472625 Z M44.2576072,172.22 L40.9246938,175.68875 C38.9793395,177.7145 39.0365048,177.653797 42.3018592,180.798219 L44.5659537,182.978328 L49.7853237,177.542797 L52.1498907,179.820031 L39.2998119,193.193797 L34.6122529,188.680953 C31.5876859,185.767203 29.2196544,183.257562 32.8037489,179.526922 C34.3437489,177.922625 35.5892607,177.268766 36.9560324,177.811625 C35.8976072,175.943703 37.7546151,174.372359 38.8147725,173.269297 L41.9536702,170 L44.2576072,172.22 Z" id="Fill-51" fill="#FFFFFF"></path>
                </g>
                <g id="Group-9" opacity="0.4" transform="translate(60.000000, 69.000000)" fill="#FFFFFF">
                    <path d="M24.8734016,17.6966312 C25.4866299,17.6133812 27.8234803,18.5516781 27.9048976,19.1673812 C27.9482047,19.4934437 27.9048976,19.7934906 27.8685197,20.1316937 C27.6225354,22.042975 26.2037953,31.6652875 26.4064724,33.1828656 C26.5104094,33.9616 27.1652126,34.4992562 27.6173386,34.4385531 C28.8455276,34.2755219 30.5812756,30.7443344 32.0935591,26.7864906 C32.0935591,26.7864906 32.3637953,25.99735 32.8956063,25.9262406 C33.4274173,25.8551312 33.9678898,26.1586469 34.0354488,26.649475 C34.1012756,27.1403031 33.694189,28.1549125 33.694189,28.1549125 C31.9913543,32.5584906 30.4842677,36.5579594 27.5359213,36.9533969 C26.1448976,37.1407094 22.7894646,36.0480531 22.5919843,34.5703656 C22.2385984,31.9479906 23.7734016,21.3076 24.0886772,18.6765531 C24.1700945,18.0400375 24.5044252,17.7451937 24.8734016,17.6966312 M27.2882047,14.8678656 C26.2644252,15.0066156 24.9011181,14.4793656 24.7642677,13.45435 C24.6828504,12.8386469 25.2389134,11.0956 25.2389134,11.0956 C25.2389134,11.0956 24.093874,11.8760687 23.3974961,11.9679906 L18.4431654,12.6339906 C18.4431654,12.6339906 19.8982835,13.23235 19.9641102,13.7231781 C20.0074173,14.0492406 19.1932441,15.7471937 18.9732441,16.9022875 C18.514189,19.3859125 16.7611181,33.6858344 16.4752913,34.974475 C16.1842677,36.2249594 14.3930866,38.7189906 13.9409606,38.7779594 C13.3277323,38.8612094 11.2871024,37.6332719 11.2160787,37.1008187 C11.1450551,36.5666312 12.4875748,34.7611469 12.7318268,33.4742406 C13.0107244,32.1422406 14.6910394,18.8551937 14.9855276,16.3941156 C15.1067874,15.4193969 15.7685197,13.8272406 16.314189,12.9201625 L10.8678898,13.6503344 C10.1715118,13.745725 9.25859843,15.327475 9.3348189,15.9015531 C9.50458268,17.1711156 11.3113543,19.767475 11.3893071,20.3415531 C11.4603307,20.8757406 10.4504094,22.0533812 9.7956063,22.1418344 C8.97623622,22.2511 5.81308661,19.17085 5.67623622,18.1458344 C5.47355906,16.6299906 8.84977953,10.4174594 11.0203307,10.1260844 L24.9426929,8.25642812 C26.8672598,7.99627187 28.7710394,9.4514125 28.9737165,10.9672562 C29.1833228,12.5281937 28.597811,14.6944281 27.2882047,14.8678656" id="Fill-63"></path>
                    <path d="M34.844252,8.42865156 C35.4574803,8.34540156 37.7925984,9.28369844 37.875748,9.89940156 C37.9190551,10.2271984 37.875748,10.5255109 37.8376378,10.8619797 C37.5933858,12.7749953 35.0971654,30.8471828 35.2496063,31.9953391 C35.3535433,32.7740734 36.0100787,33.3134641 36.4604724,33.2527609 C37.6886614,33.0879953 39.4261417,29.5585422 40.9366929,25.5972297 C40.9366929,25.5972297 41.2069291,24.8098234 41.7387402,24.7387141 C42.2722835,24.6676047 42.8127559,24.9711203 42.8785827,25.4619484 C42.9444094,25.9527766 42.5373228,26.9673859 42.5373228,26.9673859 C40.8344882,31.3726984 39.3274016,35.3704328 36.3807874,35.7658703 C34.9880315,35.9531828 31.6325984,34.8605266 31.4333858,33.3845734 C31.0817323,30.7604641 33.744252,12.0396203 34.0577953,9.40857344 C34.1392126,8.77205781 34.4752756,8.47721406 34.844252,8.42865156" id="Fill-65"></path>
                    <path d="M47.181748,31.7681359 C47.9595433,31.6640734 48.6282047,30.7413859 48.9729291,30.1950578 C48.2730866,29.9557141 47.9179685,29.7926828 47.8625354,29.3833703 C47.7534016,28.5630109 49.0179685,26.8095578 50.1647402,26.6551984 C50.854189,24.0154797 51.0447402,20.1495578 50.8351339,18.5903547 C50.726,17.7717297 49.8789134,17.0519641 49.2241102,17.1386828 C48.2003307,17.2774328 45.989937,19.4506047 45.5707244,21.3029172 C45.0129291,23.6738078 44.4239528,27.6750109 44.7271024,29.9296984 C44.8743465,31.0379641 46.2809606,31.8895422 47.181748,31.7681359 M59.9590709,22.2915109 C60.4926142,22.2204016 61.0330866,22.5239172 61.0989134,23.0147453 C61.1647402,23.5055734 60.7593858,24.5201828 60.7593858,24.5201828 C60.7593858,24.5201828 58.9785984,29.8950109 54.9250551,30.4396047 C54.2269449,30.5332609 52.8082047,30.5124484 52.8082047,30.5124484 C51.7584409,32.3231359 50.3414331,33.8910109 48.5398583,34.1320891 C45.6330866,34.5240578 41.1793858,32.0751203 40.7722992,29.0416984 C40.3271024,25.7203703 42.0524567,15.2655578 43.1472598,8.18930781 C43.2286772,7.55279219 43.5647402,7.25621406 43.9337165,7.20765156 C44.5469449,7.12613594 46.882063,8.06443281 46.9652126,8.67840156 C47.0085197,9.00619844 46.9652126,9.30451094 46.9271024,9.64097969 C46.4195433,13.0091359 45.8357638,17.0536984 45.8357638,17.0536984 C45.8357638,17.0536984 47.9664724,14.5960891 50.0140315,14.3203234 C51.9368661,14.0619016 54.7379685,15.9801203 55.0134016,18.0301516 C55.3304094,20.4097141 55.1242677,24.7786047 53.9671024,28.2716359 C54.3100945,28.3514172 54.6392283,28.3080578 54.7206457,28.2959172 C57.7504094,27.8900734 59.1587559,23.1517609 59.1587559,23.1517609 C59.1587559,23.1517609 59.4272598,22.3643547 59.9590709,22.2915109" id="Fill-67"></path>
                    <path d="M69.2259213,16.165525 C69.1115906,15.3035406 67.788126,14.7710875 67.2164724,14.8491344 C65.1273386,15.1283688 62.6137953,22.81165 63.2287559,27.4025406 C63.3656063,28.4275563 64.7063937,29.41615 65.5257638,29.30515 C65.9761575,29.2444469 66.4421417,28.6825094 66.7418268,27.8083844 C66.0419843,27.5690406 65.6885984,27.4060094 65.6331654,26.9966969 C65.5222992,26.1763375 67.0449764,24.4697125 68.191748,24.3153531 C68.9019843,21.8421344 69.4459213,17.8045094 69.2259213,16.165525 M72.4497008,25.9161813 C75.4794646,25.5086031 76.8860787,20.7702906 76.8860787,20.7702906 C76.8860787,20.7702906 77.156315,19.9828844 77.6898583,19.911775 C78.2216693,19.8406656 78.7621417,20.1441813 78.8279685,20.6350094 C78.8937953,21.1258375 78.4884409,22.1404469 78.4884409,22.1404469 C78.4884409,22.1404469 76.7059213,27.515275 72.6541102,28.0581344 C71.9975748,28.1465875 70.4333228,27.9800875 70.4333228,27.9800875 C69.3229291,29.9642125 68.2350551,31.4887281 66.5166299,31.7194 C63.6497008,32.1026969 59.3969449,29.9208531 59.0019843,26.9689469 C58.2380472,21.2697906 61.2314331,12.8129781 65.6141102,12.2267594 C67.9474961,11.9128375 72.3422992,13.9091031 72.6333228,16.082275 C72.9243465,18.2554469 72.3925354,23.0006969 71.4432441,25.8832281 C71.4432441,25.8832281 71.9993071,25.97515 72.4497008,25.9161813" id="Fill-69"></path>
                    <path d="M83.4969921,26.5599813 C85.5445512,26.28595 88.0043937,18.1933563 87.450063,14.0516688 C87.3288031,13.1515281 86.1248661,12.5601063 85.3037638,12.6693719 C83.2163622,12.9503406 80.7928976,20.3717313 81.4078583,24.9626219 C81.5447087,25.9876375 82.677622,26.6692469 83.4969921,26.5599813 L83.4969921,26.5599813 Z M86.1352598,5.79777813 C88.6557323,9.04799688 91.2229764,12.0432625 91.5365197,14.3812 C92.1688031,19.0934969 89.5669134,28.6238875 84.9001417,29.2517313 C82.0332126,29.6350281 77.5760472,27.4792 77.1810866,24.5290281 C76.5990394,20.1826844 78.9670709,10.4753875 84.5762047,9.72093438 L82.9391969,7.7697625 L79.8141575,9.649825 C79.6980945,9.70879375 79.493685,9.73654375 79.389748,9.58391875 C79.1766772,9.23704375 78.8873858,7.39687188 79.310063,7.1315125 L81.3558898,5.8966375 C81.3558898,5.8966375 80.0185669,4.32529375 79.5162047,3.68184063 C79.3602992,3.45290313 79.2026614,3.22223125 79.169748,2.97595 C79.0935276,2.40187188 80.9141575,0.740340625 81.5689606,0.6518875 C81.937937,0.603325 82.0713228,0.6657625 82.3207717,0.969278125 L84.6264409,3.8708875 L87.7116378,1.99949688 C87.9039213,1.8867625 88.1135276,1.9006375 88.2122677,2.01337188 C88.4270709,2.36024688 88.678252,4.24724688 88.2555748,4.51087188 L86.1352598,5.79777813 Z" id="Fill-71"></path>
                    <path d="M8.3863937,58.9168281 C6.1344252,59.2203438 4.28434646,68.4402813 4.69143307,71.4754375 C4.83348031,72.5403438 5.64592126,73.3069375 6.34229921,73.2115469 C7.73505512,73.0259688 9.32009449,69.9335781 9.66308661,68.1367656 C10.2208819,65.1397656 10.8341102,61.0084844 10.6972598,59.9834688 C10.6418268,59.5724219 9.36859843,58.7850156 8.3863937,58.9168281 M15.067811,58.3930469 C14.523874,62.7237813 13.5624567,69.2398281 13.8049764,71.0453125 C13.9089134,71.8223125 14.5637165,72.3599688 15.0141102,72.2992656 C16.2422992,72.1345 17.9797795,68.6050469 19.492063,64.6472031 C19.492063,64.6472031 19.7605669,63.8597969 20.2941102,63.7886875 C20.8259213,63.7158438 21.3663937,64.017625 21.4322205,64.5101875 C21.4980472,65.00275 21.0926929,66.0190938 21.0926929,66.0190938 C19.3898583,70.4192031 17.8827717,74.4186719 14.9344252,74.8141094 C13.0912756,75.062125 10.8722205,73.7335938 10.1030866,72.6686875 C10.1030866,72.6686875 7.80954331,75.7714844 5.76198425,76.0455156 C3.51001575,76.3490313 0.771275591,74.2539063 0.513165354,72.3270156 C-0.184944882,67.1204219 2.97647244,56.8043594 6.53977953,56.3274063 C8.50418898,56.0620469 11.1649764,57.2500938 11.1649764,57.2500938 C11.1649764,57.2500938 12.0934803,50.4877656 12.4070236,48.4862969 C12.4901732,47.8480469 12.8262362,47.5532031 13.1934803,47.5046406 C13.8084409,47.4213906 16.1435591,48.3596875 16.2249764,48.9753906 C16.2682835,49.3031875 16.2249764,49.5997656 16.1868661,49.9379688 C16.0430866,51.0445 15.8456063,52.3660938 15.067811,58.3930469" id="Fill-73"></path>
                    <path d="M27.0219528,56.4559234 C24.8115591,56.7525016 22.739748,65.2509391 23.2680945,69.1897047 C23.3928189,70.1314703 24.1931339,70.8148141 24.8912441,70.7228922 C25.7088819,70.6118922 27.1466772,69.2105172 27.9747087,66.6783297 C28.563685,64.8468297 29.4038425,58.6828609 29.2514016,57.5347047 C29.1630551,56.8773766 27.6767559,56.3674703 27.0219528,56.4559234 M38.8413228,61.2965641 C39.3748661,61.2254547 39.9136063,61.5289703 39.9794331,62.0197984 C40.0469921,62.5123609 39.6416378,63.5269703 39.6416378,63.5269703 C37.9370709,67.9288141 36.3901417,71.9334859 33.4417953,72.3289234 C31.5986457,72.5769391 28.9447874,71.4305172 28.4632126,70.3257203 C28.4632126,70.3257203 26.3584882,73.2793609 24.2693543,73.5603297 C22.672189,73.7736578 19.3514016,72.0115328 19.0932913,70.0829078 C18.3674646,64.6699234 21.7696693,54.2810172 25.1285669,53.8300797 C27.3389606,53.5335016 30.3462047,55.1325953 30.3462047,55.1325953 C31.4115591,54.9903766 33.4816378,54.8811109 33.6184882,55.9043922 C33.788252,57.1774234 32.1183307,66.4962203 32.3937638,68.5497203 C32.5080945,69.4082359 33.1126614,69.8695797 33.5630551,69.8088766 C34.7912441,69.6441109 36.5269921,66.1146578 38.0392756,62.1550797 C38.0392756,62.1550797 38.3095118,61.3676734 38.8413228,61.2965641" id="Fill-75"></path>
                    <path d="M44.9968189,54.0423672 C42.7864252,54.3389453 40.3057953,62.8946172 40.8324094,66.8316484 C40.9588661,67.7734141 41.7591811,68.4567578 42.4555591,68.3631016 C43.2749291,68.2521016 44.7109921,66.8524609 45.5407559,64.3202734 C46.128,62.4870391 46.9698898,56.3230703 46.8157165,55.1749141 C46.7291024,54.5175859 45.651622,53.9539141 44.9968189,54.0423672 M45.1648504,73.9686016 C43.2472126,75.5208672 40.3698898,77.9940859 40.5656378,79.4683047 C40.6765039,80.2886641 41.3850079,80.9043672 42.039811,80.8176484 C42.8591811,80.7066484 43.7807559,80.1238984 44.0752441,79.2064141 C44.3039055,78.4259453 44.8339843,75.8486641 45.1648504,73.9686016 M41.8354016,71.2022734 C40.2382362,71.4173359 36.9174488,69.6517422 36.6593386,67.7248516 C35.9335118,62.3118672 39.7462677,51.8674609 43.1034331,51.4165234 C45.3138268,51.1199453 47.912252,52.7762734 47.912252,52.7762734 C48.975874,52.6323203 51.0459528,52.5213203 51.1828031,53.5446016 C51.2867402,54.3233359 50.2196535,61.6042422 49.5405984,68.0387734 C51.8081575,65.9818047 53.7379213,62.9674609 54.8691024,59.8958828 C54.8691024,59.8958828 55.1376063,59.1084766 55.6711496,59.0373672 C56.2029606,58.9662578 56.7434331,59.2697734 56.8092598,59.7606016 C56.8750866,60.2531641 56.4697323,61.2677734 56.4697323,61.2677734 C54.8777638,64.9446484 52.6864252,68.2018047 49.3864252,70.9386484 C48.6605984,75.7966328 48.1807559,79.3642422 47.5900472,80.8644766 C47.0287874,82.2727891 45.1215433,83.2804609 43.359811,83.5180703 C41.1494173,83.8146484 38.4228031,81.5113984 38.2357165,80.1152266 C37.8009134,76.8788828 42.3342992,73.6806953 45.4991811,71.1693203 L45.8213858,68.2885234 C45.8213858,68.2885234 43.9228031,70.9213047 41.8354016,71.2022734" id="Fill-77"></path>
                    <path d="M56.6365512,62.8294047 C56.8669449,64.5499047 58.7637953,66.2582641 59.6230079,66.1420609 C61.0140315,65.9564828 61.7277323,63.8162641 61.530252,62.3385766 C61.1352913,59.3884047 59.709622,56.5318891 59.4151339,54.3188266 C59.4151339,54.3188266 56.3732441,60.8608891 56.6365512,62.8294047 M60.7108819,68.6673109 C57.8855276,69.0471391 52.9034803,64.8343422 52.6176535,62.7027953 C52.3474173,60.6926547 54.8644252,59.5618422 54.8644252,59.5618422 C54.8644252,59.5618422 57.8370236,52.1942172 58.9214331,49.7105922 C59.1085197,49.2267016 59.5329291,48.6682328 60.106315,48.5901859 C60.638126,48.5190766 62.2664724,49.4695141 62.3652126,50.2083578 C62.8970236,54.1852797 65.2373386,57.9610141 65.649622,61.0343266 C65.8574961,62.5917953 64.7436378,64.5377641 64.7436378,64.5377641 C66.3945039,63.4815297 67.9743465,61.8911078 69.4848976,57.9332641 C69.4848976,57.9332641 69.7551339,57.1458578 70.2869449,57.0747484 C70.8204882,57.0036391 71.3609606,57.3054203 71.4267874,57.7979828 C71.4926142,58.2905453 71.0872598,59.3051547 71.0872598,59.3051547 C69.3844252,63.7069984 65.6652126,68.0013109 60.7108819,68.6673109" id="Fill-79"></path>
                    <path d="M71.1241575,43.3972937 C70.9145512,41.839825 71.4584882,39.6787937 72.8096693,39.4984187 C73.8334488,39.3614031 75.1967559,39.8886531 75.3353386,40.9119344 C75.5432126,42.4711375 74.9577008,44.6373719 73.6480945,44.8108094 C72.624315,44.9512937 71.2610079,44.4223094 71.1241575,43.3972937 M71.2315591,47.639575 C71.8465197,47.556325 74.1833701,48.4963562 74.2647874,49.110325 C74.3080945,49.4381219 74.2647874,49.7364344 74.2266772,50.0763719 C73.9824252,51.9876531 72.5619528,61.6099656 72.7646299,63.1275437 C72.8702992,63.9045437 73.5251024,64.4439344 73.9754961,64.3832312 C75.203685,64.2184656 76.9394331,60.6890125 78.4534488,56.7294344 C78.4534488,56.7294344 78.7219528,55.9402937 79.2537638,55.8691844 C79.7873071,55.798075 80.3277795,56.1015906 80.3936063,56.5924187 C80.4594331,57.0867156 80.0540787,58.101325 80.0540787,58.101325 C78.3512441,62.5031687 76.8441575,66.5009031 73.895811,66.8963406 C72.5030551,67.0836531 69.147622,65.9909969 68.9501417,64.5150437 C68.5984882,61.8909344 70.1332913,51.2505437 70.4485669,48.6212312 C70.528252,47.9847156 70.864315,47.6898719 71.2315591,47.639575" id="Fill-81"></path>
                    <path d="M81.221811,64.9548813 C81.1698425,65.5012094 81.0607087,65.9330688 80.4873228,66.0111156 C79.7926772,66.1047719 77.7000787,65.4266313 77.5892126,64.6080063 C77.4471654,63.5413656 78.8866929,50.3254281 79.3734646,47.4238188 C79.5016535,46.823725 79.9537795,46.4699125 80.5687402,46.3866625 C81.2633858,46.2930063 83.0597638,48.1800063 83.0597638,48.1800063 C83.0597638,48.1800063 85.5230709,45.7206625 87.9794488,45.3911313 C89.1677953,45.2315688 91.4388189,46.6364125 91.6432283,48.1539906 C91.9013386,50.0826156 90.2452756,58.5654438 90.5362992,60.74035 C90.6402362,61.5190844 91.2967717,62.0567406 91.7471654,61.9960375 C92.9753543,61.8312719 94.7111024,58.3018188 96.2233858,54.343975 C96.2233858,54.343975 96.493622,53.5548344 97.0254331,53.483725 C97.5589764,53.4126156 98.0994488,53.7161313 98.1652756,54.2069594 C98.2311024,54.6995219 97.8240157,55.7141313 97.8240157,55.7141313 C96.1211811,60.115975 94.6140945,64.1154438 91.665748,64.5108813 C90.2747244,64.6981938 86.9192913,63.6055375 86.7200787,62.12785 C86.3701575,59.5037406 87.8859055,50.9116469 87.6780315,49.3559125 C87.5844882,48.6569594 86.966063,48.4072094 86.434252,48.4783188 C85.4520472,48.6101313 83.1585039,50.1710688 82.7808661,52.0147094 C82.1659055,54.8937719 81.3482677,63.7252094 81.221811,64.9548813" id="Fill-83"></path>
                    <path d="M97.9913543,57.2773234 C98.221748,58.9978234 100.118598,60.7061828 100.977811,60.5899797 C102.368835,60.4026672 103.082535,58.2624484 102.885055,56.7847609 C102.490094,53.8345891 101.064425,50.9780734 100.769937,48.7650109 C100.769937,48.7650109 97.7280472,55.3088078 97.9913543,57.2773234 M93.9724567,57.1489797 C93.7022205,55.1388391 96.2209606,54.0080266 96.2209606,54.0080266 C96.2209606,54.0080266 99.1918268,46.6404016 100.277969,44.1585109 C100.463323,43.6728859 100.887732,43.1144172 101.461118,43.0381047 C101.994661,42.9669953 103.621276,43.9174328 103.720016,44.6562766 C104.253559,48.6331984 106.772299,52.5077922 107.305843,56.4847141 C107.652299,59.0671984 105.914819,62.5966516 102.885055,63.0042297 C99.5677323,63.4499641 94.2582835,59.2805266 93.9724567,57.1489797" id="Fill-85"></path>
                </g>
            </g>
        </g>
    </g>
</svg>
