<?xml version="1.0" encoding="UTF-8"?>
<svg width="64px" height="64px" viewBox="0 0 64 64" version="1.1" xmlns="http://www.w3.org/2000/svg" xmlns:xlink="http://www.w3.org/1999/xlink">
    <!-- Generator: Sketch 43.2 (39069) - http://www.bohemiancoding.com/sketch -->
    <title>Page 1</title>
    <desc>Created with Sketch.</desc>
    <defs>
        <polygon id="path-1" points="5.42101086e-20 0.1703 5.42101086e-20 64 63.829 64 63.829 0.1703 0 0.1703"></polygon>
    </defs>
    <g id="Page-1" stroke="none" stroke-width="1" fill="none" fill-rule="evenodd">
        <g id="iPhone-7-Copy-65" transform="translate(-217.000000, -318.000000)">
            <g id="Group-7" transform="translate(90.000000, 317.000000)">
                <g id="Group-5" transform="translate(122.000000, 0.000000)">
                    <g id="Page-1" transform="translate(5.000000, 0.000000)">
                        <g id="Group-3" transform="translate(0.000000, 0.829600)">
                            <mask id="mask-2" fill="white">
                                <use xlink:href="#path-1"></use>
                            </mask>
                            <g id="Clip-2"></g>
                            <path d="M63.8295,32.0853 C63.8295,49.7113 49.5395,64.0003 31.9145,64.0003 C14.2885,64.0003 -0.0005,49.7113 -0.0005,32.0853 C-0.0005,14.4593 14.2885,0.1703 31.9145,0.1703 C49.5395,0.1703 63.8295,14.4593 63.8295,32.0853" id="Fill-1" fill="#FFD21F" mask="url(#mask-2)"></path>
                        </g>
                        <path d="M17.3866,35.8089 L17.3866,35.8089 C16.1116,35.8089 15.0676,34.7659 15.0676,33.4899 L15.0676,27.9259 C15.0676,26.6509 16.1116,25.6079 17.3866,25.6079 C18.6616,25.6079 19.7046,26.6509 19.7046,27.9259 L19.7046,33.4899 C19.7046,34.7659 18.6616,35.8089 17.3866,35.8089" id="Fill-4" fill="#403407"></path>
                        <path d="M46.4433,35.8089 L46.4433,35.8089 C45.1683,35.8089 44.1253,34.7659 44.1253,33.4899 L44.1253,27.9259 C44.1253,26.6509 45.1683,25.6079 46.4433,25.6079 C47.7183,25.6079 48.7613,26.6509 48.7613,27.9259 L48.7613,33.4899 C48.7613,34.7659 47.7183,35.8089 46.4433,35.8089" id="Fill-6" fill="#403407"></path>
                        <path d="M16.1166,17.0081 C14.6776,17.0081 13.5086,16.5371 13.4376,16.5081 C12.9646,16.3131 12.7386,15.7711 12.9336,15.2971 C13.1276,14.8241 13.6686,14.5991 14.1406,14.7921 C14.1676,14.8021 16.0196,15.5341 17.5156,14.8931 C18.2466,14.5811 18.7746,13.9931 19.1316,13.0971 C19.3216,12.6211 19.8606,12.3891 20.3356,12.5781 C20.8116,12.7671 21.0446,13.3061 20.8546,13.7821 C20.3116,15.1481 19.4296,16.0971 18.2316,16.6051 C17.5236,16.9051 16.7896,17.0081 16.1166,17.0081" id="Fill-8" fill="#403407"></path>
                        <path d="M49.9965,17.159 C49.6555,17.159 49.3265,16.97 49.1645,16.643 C49.1575,16.628 48.2625,14.877 46.7345,14.383 C45.9815,14.138 45.1985,14.238 44.3385,14.684 C43.8835,14.92 43.3245,14.743 43.0875,14.289 C42.8515,13.834 43.0295,13.275 43.4835,13.038 C44.7945,12.359 46.0845,12.218 47.3205,12.623 C49.5925,13.367 50.7785,15.721 50.8275,15.821 C51.0545,16.28 50.8665,16.836 50.4075,17.063 C50.2745,17.128 50.1345,17.159 49.9965,17.159" id="Fill-10" fill="#403407"></path>
                        <path d="M20.288,47.7 C14.672,47.7 12.604,45.615 12.3,45.269 C11.793,44.692 11.85,43.813 12.427,43.305 C12.995,42.806 13.856,42.853 14.367,43.407 C14.488,43.523 18.243,46.951 30.699,43.024 C46.241,38.124 50.552,42.93 50.993,43.495 C51.465,44.1 51.357,44.974 50.752,45.447 C50.147,45.92 49.272,45.812 48.8,45.206 C48.792,45.201 45.184,41.372 31.536,45.678 C26.761,47.183 23.084,47.7 20.288,47.7" id="Fill-12" fill="#403407"></path>
                    </g>
                </g>
            </g>
        </g>
    </g>
</svg>