<?xml version="1.0" encoding="UTF-8"?>
<svg width="64px" height="64px" viewBox="0 0 64 64" version="1.1" xmlns="http://www.w3.org/2000/svg" xmlns:xlink="http://www.w3.org/1999/xlink">
    <!-- Generator: Sketch 43.2 (39069) - http://www.bohemiancoding.com/sketch -->
    <title>Page 1</title>
    <desc>Created with Sketch.</desc>
    <defs>
        <polygon id="path-1" points="63.8294 64 0.0004 64 0.0004 0.1703 63.8294 0.1703 63.8294 64"></polygon>
    </defs>
    <g id="Page-1" stroke="none" stroke-width="1" fill="none" fill-rule="evenodd">
        <g id="iPhone-7-Copy-76" transform="translate(-156.000000, -330.000000)">
            <g id="Page-1" transform="translate(156.000000, 329.000000)">
                <g id="Group-3" transform="translate(0.000000, 0.829600)">
                    <mask id="mask-2" fill="white">
                        <use xlink:href="#path-1"></use>
                    </mask>
                    <g id="Clip-2"></g>
                    <path d="M63.8294,32.0853 C63.8294,49.7113 49.5404,64.0003 31.9144,64.0003 C14.2884,64.0003 0.0004,49.7113 0.0004,32.0853 C0.0004,14.4593 14.2884,0.1703 31.9144,0.1703 C49.5404,0.1703 63.8294,14.4593 63.8294,32.0853" id="Fill-1" fill="#FFD21F" mask="url(#mask-2)"></path>
                </g>
                <path d="M17.386,34.8812 L17.386,34.8812 C16.112,34.8812 15.068,33.8382 15.068,32.5632 L15.068,26.9992 C15.068,25.7242 16.112,24.6802 17.386,24.6802 C18.661,24.6802 19.704,25.7242 19.704,26.9992 L19.704,32.5632 C19.704,33.8382 18.661,34.8812 17.386,34.8812" id="Fill-4" fill="#403407"></path>
                <path d="M46.4436,34.8812 L46.4436,34.8812 C45.1686,34.8812 44.1246,33.8382 44.1246,32.5632 L44.1246,26.9992 C44.1246,25.7242 45.1686,24.6802 46.4436,24.6802 C47.7176,24.6802 48.7606,25.7242 48.7606,26.9992 L48.7606,32.5632 C48.7606,33.8382 47.7176,34.8812 46.4436,34.8812" id="Fill-6" fill="#403407"></path>
                <path d="M50.1907,43.4232 L13.6387,43.4232 C12.8717,43.4232 12.2487,42.8002 12.2487,42.0322 C12.2487,41.2642 12.8717,40.6412 13.6387,40.6412 L50.1907,40.6412 C50.9587,40.6412 51.5817,41.2642 51.5817,42.0322 C51.5817,42.8002 50.9587,43.4232 50.1907,43.4232" id="Fill-8" fill="#403407"></path>
            </g>
        </g>
    </g>
</svg>