<?xml version="1.0" encoding="UTF-8"?>
<svg width="64px" height="64px" viewBox="0 0 64 64" version="1.1" xmlns="http://www.w3.org/2000/svg" xmlns:xlink="http://www.w3.org/1999/xlink">
    <!-- Generator: Sketch 43.2 (39069) - http://www.bohemiancoding.com/sketch -->
    <title>Page 1</title>
    <desc>Created with Sketch.</desc>
    <defs></defs>
    <g id="Page-1" stroke="none" stroke-width="1" fill="none" fill-rule="evenodd">
        <g id="iPhone-7-Copy-75" transform="translate(-155.000000, -347.000000)">
            <g id="Page-1" transform="translate(155.000000, 347.000000)">
                <path d="M63.814,32.9106 C63.264,50.5276 48.536,64.3636 30.919,63.8136 C13.302,63.2646 -0.534,48.5366 0.016,30.9196 C0.565,13.3026 15.293,-0.5334 32.91,0.0156 C50.527,0.5656 64.364,15.2926 63.814,32.9106" id="Fill-1" fill="#FFD21F"></path>
                <path d="M13.0391,30.1508 C12.1521,30.1508 11.4271,29.4368 11.4171,28.5468 C11.4131,28.2348 11.4351,25.4468 13.2991,23.5598 C14.3341,22.5128 15.7481,21.9598 17.3861,21.9598 C19.0331,21.9598 20.4481,22.5148 21.4791,23.5668 C23.3241,25.4478 23.3231,28.2128 23.3171,28.5208 C23.2991,29.4178 22.5441,30.1198 21.6631,30.1118 C20.7671,30.0938 20.0551,29.3538 20.0721,28.4578 C20.0761,27.9948 19.9171,26.5998 19.1531,25.8298 C18.7351,25.4098 18.1581,25.2048 17.3861,25.2048 C16.6131,25.2048 16.0311,25.4138 15.6081,25.8418 C14.6841,26.7768 14.6621,28.4918 14.6621,28.5088 C14.6731,29.4048 13.9551,30.1398 13.0591,30.1508 L13.0391,30.1508 Z" id="Fill-3" fill="#403407"></path>
                <path d="M42.1343,30.1508 C41.2473,30.1508 40.5223,29.4368 40.5123,28.5468 C40.5083,28.2348 40.5303,25.4468 42.3943,23.5598 C43.4303,22.5128 44.8433,21.9598 46.4823,21.9598 C48.1283,21.9598 49.5433,22.5148 50.5743,23.5668 C52.4193,25.4478 52.4183,28.2128 52.4123,28.5208 C52.3953,29.4178 51.6353,30.1198 50.7583,30.1118 C49.8623,30.0938 49.1503,29.3538 49.1673,28.4578 C49.1713,27.9948 49.0123,26.5998 48.2483,25.8298 C47.8303,25.4098 47.2533,25.2048 46.4823,25.2048 C45.7083,25.2048 45.1273,25.4138 44.7033,25.8418 C43.7793,26.7768 43.7573,28.4918 43.7573,28.5088 C43.7683,29.4048 43.0503,30.1398 42.1543,30.1508 L42.1343,30.1508 Z" id="Fill-5" fill="#403407"></path>
                <path d="M17.5264,37.6567 C16.9184,37.6587 16.4994,38.2737 16.7294,38.8377 C17.9274,41.7607 21.9284,49.1227 31.8524,49.1227 C41.7714,49.1227 45.8624,41.7097 47.0974,38.7607 C47.3344,38.1947 46.9114,37.5717 46.2974,37.5737 L17.5264,37.6567 Z" id="Fill-7" fill="#FFFFFF"></path>
                <path d="M18.396,39.0805 C19.86,42.1805 23.624,47.6955 31.852,47.6955 C40.082,47.6955 43.919,42.1305 45.424,39.0025 L18.396,39.0805 Z M31.852,50.5485 C21.142,50.5485 16.786,42.7365 15.41,39.3775 C15.122,38.6765 15.202,37.8795 15.625,37.2475 C16.05,36.6125 16.759,36.2315 17.523,36.2295 L46.294,36.1465 C47.069,36.1465 47.782,36.5285 48.208,37.1695 C48.631,37.8065 48.708,38.6065 48.413,39.3105 C46.998,42.6895 42.551,50.5485 31.852,50.5485 L31.852,50.5485 Z" id="Fill-9" fill="#FFFFFF"></path>
                <path d="M24.3389,42.8842 C24.3129,42.8842 24.2869,42.8832 24.2599,42.8802 C20.9669,42.4772 18.2289,41.6962 15.8889,40.4902 C15.5739,40.3282 15.4509,39.9432 15.6129,39.6272 C15.7749,39.3132 16.1609,39.1892 16.4759,39.3512 C18.6779,40.4862 21.2759,41.2242 24.4159,41.6082 C24.7669,41.6512 25.0169,41.9702 24.9739,42.3222 C24.9339,42.6472 24.6579,42.8842 24.3389,42.8842" id="Fill-11" fill="#F2F2F2"></path>
                <path d="M40.5738,42.728 C40.2668,42.728 39.9948,42.506 39.9428,42.193 C39.8838,41.843 40.1188,41.513 40.4688,41.455 C42.7668,41.069 44.9168,40.468 46.8568,39.669 C47.1838,39.535 47.5588,39.691 47.6928,40.018 C47.8278,40.345 47.6718,40.72 47.3448,40.855 C45.3158,41.69 43.0738,42.317 40.6808,42.718 C40.6448,42.725 40.6088,42.728 40.5738,42.728" id="Fill-13" fill="#F2F2F2"></path>
                <path d="M14.2134,35.5229 C14.2134,38.0879 12.1334,40.1679 9.5694,40.1679 C7.0044,40.1679 4.9254,38.0879 4.9254,35.5229 C4.9254,32.9589 7.0044,30.8789 9.5694,30.8789 C12.1334,30.8789 14.2134,32.9589 14.2134,35.5229" id="Fill-15" fill="#FF758A"></path>
                <path d="M58.9043,35.5229 C58.9043,38.0879 56.8243,40.1679 54.2603,40.1679 C51.6953,40.1679 49.6163,38.0879 49.6163,35.5229 C49.6163,32.9589 51.6953,30.8789 54.2603,30.8789 C56.8243,30.8789 58.9043,32.9589 58.9043,35.5229" id="Fill-17" fill="#FF758A"></path>
            </g>
        </g>
    </g>
</svg>