<?xml version="1.0" encoding="UTF-8"?>
<svg width="64px" height="64px" viewBox="0 0 64 64" version="1.1" xmlns="http://www.w3.org/2000/svg" xmlns:xlink="http://www.w3.org/1999/xlink">
    <!-- Generator: Sketch 43.2 (39069) - http://www.bohemiancoding.com/sketch -->
    <title>Page 1</title>
    <desc>Created with Sketch.</desc>
    <defs></defs>
    <g id="Page-1" stroke="none" stroke-width="1" fill="none" fill-rule="evenodd">
        <g id="iPhone-7-Copy-65" transform="translate(-95.000000, -318.000000)">
            <g id="Group-7" transform="translate(90.000000, 317.000000)">
                <g id="Group-6">
                    <g id="Page-1" transform="translate(5.000000, 0.000000)">
                        <g id="Group-3" transform="translate(0.000000, 0.829600)" fill="#FFD21F">
                            <path d="M63.8295,32.0851 C63.8295,49.7111 49.5405,64.0001 31.9145,64.0001 C14.2885,64.0001 -0.0005,49.7111 -0.0005,32.0851 C-0.0005,14.4591 14.2885,0.1701 31.9145,0.1701 C49.5405,0.1701 63.8295,14.4591 63.8295,32.0851" id="Fill-1"></path>
                        </g>
                        <path d="M17.3862,33.3786 L17.3862,33.3786 C16.1112,33.3786 15.0682,32.3356 15.0682,31.0606 L15.0682,25.4956 C15.0682,24.2216 16.1112,23.1776 17.3862,23.1776 C18.6612,23.1776 19.7052,24.2216 19.7052,25.4956 L19.7052,31.0606 C19.7052,32.3356 18.6612,33.3786 17.3862,33.3786" id="Fill-4" fill="#403407"></path>
                        <path d="M46.4433,33.3786 L46.4433,33.3786 C45.1683,33.3786 44.1253,32.3356 44.1253,31.0606 L44.1253,25.4956 C44.1253,24.2216 45.1683,23.1776 46.4433,23.1776 C47.7183,23.1776 48.7613,24.2216 48.7613,25.4956 L48.7613,31.0606 C48.7613,32.3356 47.7183,33.3786 46.4433,33.3786" id="Fill-6" fill="#403407"></path>
                        <path d="M31.8637,51.3854 C23.7117,51.3854 19.8277,45.1144 18.9137,41.7984 C18.6757,40.9344 19.1827,40.0404 20.0467,39.8024 C20.9107,39.5644 21.8037,40.0724 22.0427,40.9354 C22.1247,41.2234 24.1817,48.1404 31.8637,48.1404 C39.5587,48.1404 41.7057,41.1474 41.7937,40.8494 C42.0457,39.9914 42.9457,39.4964 43.8027,39.7454 C44.6617,39.9934 45.1577,40.8874 44.9127,41.7464 C43.9597,45.0804 40.0067,51.3854 31.8637,51.3854" id="Fill-8" fill="#403407"></path>
                    </g>
                </g>
            </g>
        </g>
    </g>
</svg>